<svg viewBox="0 0 178 131" fill="none" xmlns="http://www.w3.org/2000/svg"><g id="corporateBankingIcon"><g id="Group 1000004981"><path id="Ellipse 115" d="M130.747 75.3966C144.905 75.3966 156.382 63.9195 156.382 49.7617C156.382 35.6039 144.905 24.1268 130.747 24.1268C116.59 24.1268 105.112 35.6039 105.112 49.7617C105.112 63.9195 116.59 75.3966 130.747 75.3966Z" fill="url(#paint0_linear_21_1183)"></path><path id="Ellipse 116" d="M177.492 129.682C177.492 123.345 176.283 117.071 173.933 111.216C171.584 105.362 168.141 100.042 163.8 95.5615C159.459 91.0807 154.306 87.5263 148.635 85.1013C142.963 82.6763 136.885 81.4282 130.746 81.4282C124.607 81.4282 118.528 82.6763 112.857 85.1013C107.185 87.5263 102.032 91.0807 97.6917 95.5615C93.351 100.042 89.9077 105.362 87.5585 111.216C85.2093 117.071 84.0001 123.345 84.0001 129.682H130.746H177.492Z" fill="url(#paint1_linear_21_1183)"></path></g><g id="Group 1000004979"><path id="Ellipse 115_2" d="M46.7449 75.3966C32.5871 75.3966 21.11 63.9195 21.11 49.7617C21.11 35.6039 32.5871 24.1268 46.7449 24.1268C60.9026 24.1268 72.3798 35.6039 72.3798 49.7617C72.3798 63.9195 60.9026 75.3966 46.7449 75.3966Z" fill="url(#paint2_linear_21_1183)"></path><path id="Ellipse 116_2" d="M0 129.682C0 123.345 1.20912 117.071 3.55833 111.216C5.90754 105.362 9.35083 100.042 13.6916 95.5615C18.0324 91.0807 23.1856 87.5263 28.8571 85.1013C34.5286 82.6763 40.6073 81.4282 46.7461 81.4282C52.8848 81.4282 58.9635 82.6763 64.635 85.1013C70.3065 87.5263 75.4597 91.0807 79.8005 95.5615C84.1413 100.042 87.5845 105.362 89.9337 111.216C92.283 117.071 93.4921 123.345 93.4921 129.682H46.7461H0Z" fill="url(#paint3_linear_21_1183)"></path></g><g id="Group 1000004983"><path id="Ellipse 115_3" d="M91.8218 62.7C109.661 62.7 124.122 48.6641 124.122 31.35C124.122 14.0359 109.661 0 91.8218 0C73.983 0 59.5218 14.0359 59.5218 31.35C59.5218 48.6641 73.983 62.7 91.8218 62.7Z" fill="#D9D9D9"></path><path id="Ellipse 116_3" d="M150.72 130.15C150.72 122.29 149.197 114.508 146.237 107.246C143.277 99.9851 138.938 93.3873 133.469 87.8297C127.999 82.2721 121.506 77.8636 114.36 74.8559C107.214 71.8481 99.5554 70.3 91.8205 70.3C84.0857 70.3 76.4266 71.8481 69.2805 74.8559C62.1344 77.8636 55.6413 82.2721 50.1719 87.8297C44.7026 93.3873 40.364 99.9851 37.404 107.246C34.444 114.508 32.9205 122.29 32.9205 130.15H91.8205H150.72Z" fill="url(#paint4_linear_21_1183)"></path></g></g><defs><linearGradient id="paint0_linear_21_1183" x1="96.1608" y1="31.4389" x2="138.534" y2="67.6619" gradientUnits="userSpaceOnUse"><stop offset="0.0879882" stop-color="#8E8E8E"></stop><stop offset="1" stop-color="#D9D9D9"></stop></linearGradient><linearGradient id="paint1_linear_21_1183" x1="104.16" y1="84.9999" x2="149.16" y2="130" gradientUnits="userSpaceOnUse"><stop stop-color="#511C4E"></stop><stop offset="1" stop-color="#AF469F"></stop></linearGradient><linearGradient id="paint2_linear_21_1183" x1="81.3314" y1="31.4389" x2="38.9573" y2="67.6619" gradientUnits="userSpaceOnUse"><stop offset="0.0879882" stop-color="#8E8E8E"></stop><stop offset="1" stop-color="#D9D9D9"></stop></linearGradient><linearGradient id="paint3_linear_21_1183" x1="73.3319" y1="84.9999" x2="28.3319" y2="130" gradientUnits="userSpaceOnUse"><stop stop-color="#511C4E"></stop><stop offset="1" stop-color="#AF469F"></stop></linearGradient><linearGradient id="paint4_linear_21_1183" x1="32.9205" y1="84.3274" x2="130.293" y2="188.447" gradientUnits="userSpaceOnUse"><stop stop-color="#FFBAF5"></stop><stop offset="0.986917" stop-color="#D73BC2"></stop></linearGradient></defs></svg>