<svg width="125" height="24" viewBox="0 0 125 24" fill="none" xmlns="http://www.w3.org/2000/svg">
<path d="M5.19951 13.4588L5.41912 8.64314L1.37206 11.2627L0.117157 9.09804L4.4152 6.90196L0.117157 4.70588L1.37206 2.5098L5.41912 5.12941L5.19951 0.313726H7.67794L7.45833 5.12941L11.5054 2.5098L12.7603 4.70588L8.46226 6.90196L12.7603 9.09804L11.5054 11.2627L7.45833 8.64314L7.67794 13.4588H5.19951Z" fill="url(#paint0_linear_1430_9876)"/>
<path d="M23.427 24C21.9943 24 20.708 23.7281 19.5681 23.1843C18.4387 22.6301 17.5342 21.8719 16.8544 20.9098C16.1747 19.9373 15.8139 18.834 15.7721 17.6H19.1917C19.2753 18.5935 19.7198 19.4144 20.525 20.0627C21.3302 20.7111 22.2976 21.0353 23.427 21.0353C24.3263 21.0353 25.1211 20.8261 25.8113 20.4078C26.5015 19.9895 27.0453 19.4196 27.4426 18.698C27.84 17.966 28.0387 17.1294 28.0387 16.1882C28.0387 15.2471 27.8348 14.4052 27.427 13.6627C27.0191 12.9098 26.4544 12.319 25.7328 11.8902C25.0217 11.4614 24.2008 11.2471 23.2701 11.2471C22.559 11.2471 21.8479 11.3725 21.1368 11.6235C20.4257 11.8641 19.8505 12.1778 19.4113 12.5647L16.1642 12.0941L17.4819 0.313726H30.3289V3.34118H20.4309L19.6936 9.88235H19.8191C20.2688 9.43268 20.8701 9.06667 21.623 8.78431C22.3864 8.4915 23.2074 8.3451 24.0858 8.3451C25.508 8.3451 26.7734 8.68497 27.8819 9.36471C29.0008 10.034 29.8792 10.9542 30.5172 12.1255C31.1551 13.2863 31.474 14.6196 31.474 16.1255C31.474 17.6418 31.1289 18.9961 30.4387 20.1882C29.7485 21.3699 28.7969 22.3007 27.5838 22.9804C26.3812 23.6601 24.9956 24 23.427 24Z" fill="url(#paint1_linear_1430_9876)"/>
<path d="M42.2819 24C41.2466 24 40.2217 23.817 39.2074 23.451C38.193 23.085 37.2779 22.4784 36.4623 21.6314C35.6466 20.7739 34.9877 19.6235 34.4858 18.1804C33.9943 16.7373 33.7485 14.9438 33.7485 12.8C33.7485 10.7608 33.9525 8.95163 34.3603 7.37255C34.7786 5.78301 35.3694 4.44444 36.1328 3.35686C36.9067 2.25882 37.8374 1.42745 38.925 0.862745C40.0126 0.287582 41.2361 0 42.5956 0C43.9864 0 45.2204 0.277124 46.2976 0.831373C47.3747 1.37516 48.2479 2.1281 48.9172 3.0902C49.5969 4.05229 50.0204 5.15033 50.1877 6.38431H46.7368C46.4962 5.41177 46.0257 4.62222 45.325 4.01569C44.6243 3.39869 43.7145 3.0902 42.5956 3.0902C40.8806 3.0902 39.542 3.83791 38.5799 5.33333C37.6283 6.8183 37.1525 8.88889 37.1525 11.5451H37.325C37.7328 10.8863 38.2296 10.3216 38.8152 9.85098C39.4008 9.36994 40.0544 9.00392 40.776 8.75294C41.508 8.50196 42.2871 8.37647 43.1132 8.37647C44.4623 8.37647 45.6858 8.70588 46.7838 9.36471C47.8923 10.0235 48.7708 10.9333 49.4191 12.0941C50.0779 13.2444 50.4074 14.5673 50.4074 16.0627C50.4074 17.5477 50.0675 18.8915 49.3877 20.0941C48.7185 21.2967 47.7721 22.2484 46.5485 22.949C45.3355 23.6497 43.9132 24 42.2819 24ZM42.2662 21.0353C43.1655 21.0353 43.9655 20.8157 44.6662 20.3765C45.3773 19.9373 45.942 19.3464 46.3603 18.6039C46.7786 17.851 46.9877 17.0144 46.9877 16.0941C46.9877 15.1948 46.7838 14.3791 46.376 13.6471C45.9786 12.915 45.4296 12.3346 44.7289 11.9059C44.0387 11.4667 43.244 11.2471 42.3446 11.2471C41.4557 11.2471 40.6505 11.4719 39.9289 11.9216C39.2074 12.3712 38.6322 12.9673 38.2034 13.7098C37.7851 14.4523 37.576 15.2575 37.576 16.1255C37.576 16.9935 37.7799 17.8039 38.1877 18.5569C38.5956 19.3098 39.1498 19.9111 39.8505 20.3608C40.5616 20.8105 41.3668 21.0353 42.2662 21.0353Z" fill="url(#paint2_linear_1430_9876)"/>
<path d="M60.823 24C59.3904 24 58.1041 23.7281 56.9642 23.1843C55.8348 22.6301 54.9302 21.8719 54.2505 20.9098C53.5708 19.9373 53.21 18.834 53.1681 17.6H56.5877C56.6714 18.5935 57.1159 19.4144 57.9211 20.0627C58.7263 20.7111 59.6936 21.0353 60.823 21.0353C61.7224 21.0353 62.5172 20.8261 63.2074 20.4078C63.8976 19.9895 64.4413 19.4196 64.8387 18.698C65.2361 17.966 65.4348 17.1294 65.4348 16.1882C65.4348 15.2471 65.2309 14.4052 64.823 13.6627C64.4152 12.9098 63.8505 12.319 63.1289 11.8902C62.4178 11.4614 61.5969 11.2471 60.6662 11.2471C59.9551 11.2471 59.244 11.3725 58.5328 11.6235C57.8217 11.8641 57.2466 12.1778 56.8074 12.5647L53.5603 12.0941L54.8779 0.313726H67.725V3.34118H57.827L57.0897 9.88235H57.2152C57.6649 9.43268 58.2662 9.06667 59.0191 8.78431C59.7825 8.4915 60.6034 8.3451 61.4819 8.3451C62.9041 8.3451 64.1694 8.68497 65.2779 9.36471C66.3969 10.034 67.2753 10.9542 67.9132 12.1255C68.5511 13.2863 68.8701 14.6196 68.8701 16.1255C68.8701 17.6418 68.525 18.9961 67.8348 20.1882C67.1446 21.3699 66.193 22.3007 64.9799 22.9804C63.7773 23.6601 62.3917 24 60.823 24Z" fill="url(#paint3_linear_1430_9876)"/>
<path d="M76.4779 13.4588L76.6976 8.64314L72.6505 11.2627L71.3956 9.09804L75.6936 6.90196L71.3956 4.70588L72.6505 2.5098L76.6976 5.12941L76.4779 0.313726H78.9564L78.7368 5.12941L82.7838 2.5098L84.0387 4.70588L79.7407 6.90196L84.0387 9.09804L82.7838 11.2627L78.7368 8.64314L78.9564 13.4588H76.4779Z" fill="url(#paint4_linear_1430_9876)"/>
<path d="M95.1132 24C93.3145 24 91.7721 23.5294 90.4858 22.5882C89.21 21.6471 88.2322 20.2876 87.5525 18.5098C86.8832 16.7216 86.5485 14.5569 86.5485 12.0157C86.5485 9.48497 86.8884 7.32549 87.5681 5.53726C88.2479 3.73856 89.2257 2.36863 90.5015 1.42745C91.7878 0.475817 93.325 0 95.1132 0C96.9119 0 98.4492 0.475817 99.725 1.42745C101.011 2.36863 101.989 3.73856 102.658 5.53726C103.338 7.32549 103.678 9.48497 103.678 12.0157C103.678 14.5569 103.343 16.7216 102.674 18.5098C102.005 20.2876 101.032 21.6471 99.7564 22.5882C98.4806 23.5294 96.9328 24 95.1132 24ZM95.1132 20.9882C96.2113 20.9882 97.1368 20.6379 97.8897 19.9373C98.6427 19.2366 99.2178 18.217 99.6152 16.8784C100.013 15.5294 100.211 13.9085 100.211 12.0157C100.211 10.1124 100.013 8.4915 99.6152 7.15294C99.2178 5.80392 98.6427 4.77909 97.8897 4.07843C97.1368 3.36732 96.2113 3.01176 95.1132 3.01176C93.4923 3.01176 92.2374 3.80131 91.3485 5.38039C90.4701 6.94902 90.0309 9.16078 90.0309 12.0157C90.0309 13.9085 90.2296 15.5294 90.627 16.8784C91.0244 18.217 91.5995 19.2366 92.3525 19.9373C93.1159 20.6379 94.0361 20.9882 95.1132 20.9882Z" fill="url(#paint5_linear_1430_9876)"/>
<path d="M115.207 23.6863L119.05 0.313726H121.78L117.952 23.6863H115.207ZM104.619 17.4275L105.09 14.698H122.8L122.345 17.4275H104.619ZM107.003 23.6863L110.831 0.313726H113.56L109.733 23.6863H107.003ZM106 9.31765L106.454 6.57255H124.133L123.709 9.31765H106Z" fill="url(#paint6_linear_1430_9876)"/>
<defs>
<linearGradient id="paint0_linear_1430_9876" x1="0.117159" y1="2.8125" x2="6.87309" y2="40.7436" gradientUnits="userSpaceOnUse">
<stop stop-color="#FFBAF5"/>
<stop offset="0.986917" stop-color="#D73BC2"/>
</linearGradient>
<linearGradient id="paint1_linear_1430_9876" x1="0.117159" y1="2.8125" x2="6.87309" y2="40.7436" gradientUnits="userSpaceOnUse">
<stop stop-color="#FFBAF5"/>
<stop offset="0.986917" stop-color="#D73BC2"/>
</linearGradient>
<linearGradient id="paint2_linear_1430_9876" x1="0.117159" y1="2.8125" x2="6.87309" y2="40.7436" gradientUnits="userSpaceOnUse">
<stop stop-color="#FFBAF5"/>
<stop offset="0.986917" stop-color="#D73BC2"/>
</linearGradient>
<linearGradient id="paint3_linear_1430_9876" x1="0.117159" y1="2.8125" x2="6.87309" y2="40.7436" gradientUnits="userSpaceOnUse">
<stop stop-color="#FFBAF5"/>
<stop offset="0.986917" stop-color="#D73BC2"/>
</linearGradient>
<linearGradient id="paint4_linear_1430_9876" x1="0.117159" y1="2.8125" x2="6.87309" y2="40.7436" gradientUnits="userSpaceOnUse">
<stop stop-color="#FFBAF5"/>
<stop offset="0.986917" stop-color="#D73BC2"/>
</linearGradient>
<linearGradient id="paint5_linear_1430_9876" x1="0.117159" y1="2.8125" x2="6.87309" y2="40.7436" gradientUnits="userSpaceOnUse">
<stop stop-color="#FFBAF5"/>
<stop offset="0.986917" stop-color="#D73BC2"/>
</linearGradient>
<linearGradient id="paint6_linear_1430_9876" x1="0.117159" y1="2.8125" x2="6.87309" y2="40.7436" gradientUnits="userSpaceOnUse">
<stop stop-color="#FFBAF5"/>
<stop offset="0.986917" stop-color="#D73BC2"/>
</linearGradient>
</defs>
</svg>
