<svg width="135" height="115" viewBox="0 0 135 115" fill="none" xmlns="http://www.w3.org/2000/svg"><g id="e-bankingIcon" clip-path="url(#clip0_19_198)"><g id="Modal"><path id="Vector" d="M134.667 0H0.666992V115H134.667V0Z" fill="url(#paint0_linear_19_198)"></path><path id="Vector_2" d="M134.667 0H0.666992V14.7436H134.667V0Z" fill="#741B66"></path><path id="Vector_3" d="M10.5391 10.9144C12.196 10.9144 13.5391 9.57128 13.5391 7.91443C13.5391 6.25757 12.196 4.91443 10.5391 4.91443C8.88227 4.91443 7.53912 6.25757 7.53912 7.91443C7.53912 9.57128 8.88227 10.9144 10.5391 10.9144Z" fill="url(#paint1_linear_19_198)"></path><path id="Vector_4" d="M20.5391 10.9144C22.196 10.9144 23.5391 9.57128 23.5391 7.91443C23.5391 6.25757 22.196 4.91443 20.5391 4.91443C18.8823 4.91443 17.5391 6.25757 17.5391 7.91443C17.5391 9.57128 18.8823 10.9144 20.5391 10.9144Z" fill="url(#paint2_linear_19_198)"></path><path id="Vector_5" d="M30.5391 10.9144C32.196 10.9144 33.5391 9.57128 33.5391 7.91443C33.5391 6.25757 32.196 4.91443 30.5391 4.91443C28.8823 4.91443 27.5391 6.25757 27.5391 7.91443C27.5391 9.57128 28.8823 10.9144 30.5391 10.9144Z" fill="url(#paint3_linear_19_198)"></path><g id="Group" style="mix-blend-mode: soft-light;"><path id="Vector_6" d="M110.615 31.4529H25.8633V83.5469H110.615V31.4529Z" fill="url(#paint4_linear_19_198)" fill-opacity="0.5"></path></g><path id="Vector_7" d="M95.7268 42.2649H43.043V48.1623H95.7268V42.2649Z" fill="white"></path><path id="Vector_8" d="M95.7268 53.077H43.043V58.9744H95.7268V53.077Z" fill="white"></path><path id="Button" d="M81.3252 70.7692H57.4448C55.8163 70.7692 54.4961 72.0894 54.4961 73.7179C54.4961 75.3464 55.8163 76.6666 57.4448 76.6666H81.3252C82.9537 76.6666 84.2739 75.3464 84.2739 73.7179C84.2739 72.0894 82.9537 70.7692 81.3252 70.7692Z" fill="#D029BE"></path></g><g id="Cursors" filter="url(#filter0_d_19_198)"><path id="Vector_9" d="M106.27 107.28C105.99 106.92 105.64 106.19 105.03 105.28C104.68 104.78 103.82 103.83 103.56 103.34C103.373 103.042 103.318 102.68 103.41 102.34C103.567 101.694 104.18 101.266 104.84 101.34C105.351 101.443 105.82 101.693 106.19 102.06C106.448 102.303 106.686 102.567 106.9 102.85C107.06 103.05 107.1 103.13 107.28 103.36C107.46 103.59 107.58 103.82 107.49 103.48C107.42 102.98 107.3 102.14 107.13 101.39C107 100.82 106.97 100.73 106.85 100.3C106.73 99.87 106.66 99.51 106.53 99.02C106.411 98.5386 106.318 98.0513 106.25 97.56C106.124 96.9318 106.216 96.2793 106.51 95.71C106.86 95.3814 107.372 95.2947 107.81 95.49C108.251 95.8154 108.579 96.2697 108.75 96.79C109.012 97.4304 109.187 98.1031 109.27 98.79C109.43 99.79 109.74 101.25 109.75 101.55C109.75 101.18 109.68 100.4 109.75 100.05C109.819 99.6852 110.073 99.3824 110.42 99.25C110.718 99.1587 111.033 99.1381 111.34 99.19C111.65 99.2549 111.925 99.4332 112.11 99.69C112.342 100.273 112.47 100.893 112.49 101.52C112.517 100.971 112.611 100.427 112.77 99.9C112.937 99.6646 113.181 99.4948 113.46 99.42C113.791 99.3596 114.13 99.3596 114.46 99.42C114.731 99.5107 114.968 99.6816 115.14 99.91C115.352 100.44 115.48 101 115.52 101.57C115.52 101.71 115.59 101.18 115.81 100.83C115.924 100.491 116.211 100.238 116.562 100.167C116.913 100.097 117.275 100.219 117.512 100.487C117.749 100.756 117.824 101.131 117.71 101.47C117.71 102.12 117.71 102.09 117.71 102.53C117.71 102.97 117.71 103.36 117.71 103.73C117.674 104.315 117.593 104.897 117.47 105.47C117.296 105.977 117.054 106.458 116.75 106.9C116.265 107.44 115.863 108.05 115.56 108.71C115.485 109.038 115.451 109.374 115.46 109.71C115.459 110.021 115.499 110.33 115.58 110.63C115.171 110.673 114.759 110.673 114.35 110.63C113.96 110.57 113.48 109.79 113.35 109.55C113.286 109.421 113.154 109.34 113.01 109.34C112.866 109.34 112.734 109.421 112.67 109.55C112.45 109.93 111.96 110.62 111.62 110.66C110.95 110.74 109.57 110.66 108.48 110.66C108.48 110.66 108.66 109.66 108.25 109.3C107.84 108.94 107.42 108.52 107.11 108.24L106.27 107.28Z" fill="white"></path><path id="Vector_10" fill-rule="evenodd" clip-rule="evenodd" d="M106.27 107.28C105.99 106.92 105.64 106.19 105.03 105.28C104.68 104.78 103.82 103.83 103.56 103.34C103.373 103.042 103.318 102.68 103.41 102.34C103.567 101.694 104.18 101.266 104.84 101.34C105.351 101.443 105.82 101.693 106.19 102.06C106.448 102.303 106.686 102.567 106.9 102.85C107.06 103.05 107.1 103.13 107.28 103.36C107.46 103.59 107.58 103.82 107.49 103.48C107.42 102.98 107.3 102.14 107.13 101.39C107 100.82 106.97 100.73 106.85 100.3C106.73 99.87 106.66 99.51 106.53 99.02C106.411 98.5386 106.318 98.0513 106.25 97.56C106.124 96.9318 106.216 96.2793 106.51 95.71C106.86 95.3814 107.372 95.2947 107.81 95.49C108.251 95.8154 108.579 96.2697 108.75 96.79C109.012 97.4304 109.187 98.1031 109.27 98.79C109.43 99.79 109.74 101.25 109.75 101.55C109.75 101.18 109.68 100.4 109.75 100.05C109.819 99.6852 110.073 99.3824 110.42 99.25C110.718 99.1587 111.033 99.1381 111.34 99.19C111.65 99.2549 111.925 99.4332 112.11 99.69C112.342 100.273 112.47 100.893 112.49 101.52C112.517 100.971 112.611 100.427 112.77 99.9C112.937 99.6646 113.181 99.4948 113.46 99.42C113.791 99.3596 114.13 99.3596 114.46 99.42C114.731 99.5107 114.968 99.6816 115.14 99.91C115.352 100.44 115.48 101 115.52 101.57C115.52 101.71 115.59 101.18 115.81 100.83C115.924 100.491 116.211 100.238 116.562 100.167C116.913 100.097 117.275 100.219 117.512 100.487C117.749 100.756 117.824 101.131 117.71 101.47C117.71 102.12 117.71 102.09 117.71 102.53C117.71 102.97 117.71 103.36 117.71 103.73C117.674 104.315 117.593 104.897 117.47 105.47C117.296 105.977 117.054 106.458 116.75 106.9C116.265 107.44 115.863 108.05 115.56 108.71C115.485 109.038 115.451 109.374 115.46 109.71C115.459 110.021 115.499 110.33 115.58 110.63C115.171 110.673 114.759 110.673 114.35 110.63C113.96 110.57 113.48 109.79 113.35 109.55C113.286 109.421 113.154 109.34 113.01 109.34C112.866 109.34 112.734 109.421 112.67 109.55C112.45 109.93 111.96 110.62 111.62 110.66C110.95 110.74 109.57 110.66 108.48 110.66C108.48 110.66 108.66 109.66 108.25 109.3C107.84 108.94 107.42 108.52 107.11 108.24L106.27 107.28Z" stroke="#2E323D" stroke-width="0.75" stroke-linecap="round" stroke-linejoin="round"></path><path id="Vector_11" d="M114.75 107.826V104.374C114.75 104.167 114.582 104 114.375 104C114.168 104 114 104.167 114 104.374V107.826C114 108.033 114.168 108.2 114.375 108.2C114.582 108.2 114.75 108.033 114.75 107.826Z" fill="#2E323D"></path><path id="Vector_12" d="M112.77 107.825L112.75 104.371C112.749 104.165 112.58 103.999 112.373 104C112.166 104.001 111.999 104.169 112 104.375L112.02 107.829C112.021 108.035 112.19 108.201 112.397 108.2C112.604 108.199 112.771 108.031 112.77 107.825Z" fill="#2E323D"></path><path id="Vector_13" d="M110 104.379L110.02 107.825C110.021 108.033 110.19 108.201 110.397 108.2C110.604 108.199 110.771 108.029 110.77 107.821L110.75 104.375C110.749 104.167 110.58 103.999 110.373 104C110.166 104.001 109.999 104.171 110 104.379Z" fill="#2E323D"></path></g></g><defs><filter id="filter0_d_19_198" x="101.191" y="94.2118" width="18.746" height="19.6588" filterUnits="userSpaceOnUse" color-interpolation-filters="sRGB"><feFlood flood-opacity="0" result="BackgroundImageFix"></feFlood><feColorMatrix in="SourceAlpha" type="matrix" values="0 0 0 0 0 0 0 0 0 0 0 0 0 0 0 0 0 0 127 0" result="hardAlpha"></feColorMatrix><feOffset dy="1"></feOffset><feGaussianBlur stdDeviation="0.9"></feGaussianBlur><feColorMatrix type="matrix" values="0 0 0 0 0 0 0 0 0 0 0 0 0 0 0 0 0 0 0.65 0"></feColorMatrix><feBlend mode="normal" in2="BackgroundImageFix" result="effect1_dropShadow_19_198"></feBlend><feBlend mode="normal" in="SourceGraphic" in2="effect1_dropShadow_19_198" result="shape"></feBlend></filter><linearGradient id="paint0_linear_19_198" x1="0.666995" y1="13.4766" x2="91.8768" y2="128.953" gradientUnits="userSpaceOnUse"><stop stop-color="#FFBAF5"></stop><stop offset="0.986917" stop-color="#D73BC2"></stop></linearGradient><linearGradient id="paint1_linear_19_198" x1="7.53908" y1="5.61755" x2="12.4141" y2="10.9144" gradientUnits="userSpaceOnUse"><stop stop-color="#FFBAF5"></stop><stop offset="0.986917" stop-color="#A22B92"></stop></linearGradient><linearGradient id="paint2_linear_19_198" x1="17.5391" y1="5.61755" x2="22.4141" y2="10.9144" gradientUnits="userSpaceOnUse"><stop stop-color="#FFBAF5"></stop><stop offset="0.986917" stop-color="#A22B92"></stop></linearGradient><linearGradient id="paint3_linear_19_198" x1="27.5391" y1="5.61755" x2="32.4141" y2="10.9144" gradientUnits="userSpaceOnUse"><stop stop-color="#FFBAF5"></stop><stop offset="0.986917" stop-color="#A22B92"></stop></linearGradient><linearGradient id="paint4_linear_19_198" x1="160.436" y1="87.4786" x2="26.7332" y2="30.4565" gradientUnits="userSpaceOnUse"><stop stop-color="#611261"></stop><stop offset="0.0001" stop-color="#AB5DAB"></stop><stop offset="1" stop-color="#FFF4FF"></stop></linearGradient><clipPath id="clip0_19_198"><rect width="135" height="115" fill="white"></rect></clipPath></defs></svg>