<svg width="155" height="127" viewBox="0 0 155 127" fill="none" xmlns="http://www.w3.org/2000/svg">
<g id="Group 1000004988">
<g id="Group 1000004986">
<rect id="Rectangle 496" x="20.6669" y="7" width="134" height="117" fill="url(#paint0_linear_1349_385)"/>
<rect id="Rectangle 497" x="20.6669" y="7" width="134" height="15" fill="#741B66"/>
<rect id="Rectangle 509" x="45.6669" width="2" height="14" fill="url(#paint1_linear_1349_385)"/>
<rect id="Rectangle 510" x="64.6669" width="2" height="14" fill="url(#paint2_linear_1349_385)"/>
<rect id="Rectangle 511" x="83.6669" width="2" height="14" fill="url(#paint3_linear_1349_385)"/>
<rect id="Rectangle 512" x="102.667" width="2" height="14" fill="url(#paint4_linear_1349_385)"/>
<rect id="Rectangle 513" x="121.667" width="2" height="14" fill="url(#paint5_linear_1349_385)"/>
<g id="Group 1000004987">
<rect id="Rectangle 514" x="45.6669" y="34" width="14" height="14" fill="#FFF4FF"/>
<rect id="Rectangle 518" x="45.6669" y="52" width="14" height="14" fill="#FFF4FF"/>
<rect id="Rectangle 522" x="45.6669" y="70" width="14" height="14" fill="#FFF4FF"/>
<rect id="Rectangle 526" x="45.6669" y="88" width="14" height="14" fill="#FFF4FF"/>
<rect id="Rectangle 515" x="67.6669" y="34" width="15" height="14" fill="#FFF4FF"/>
<rect id="Rectangle 519" x="67.6669" y="52" width="15" height="14" fill="#FFF4FF"/>
<rect id="Rectangle 523" x="67.6669" y="70" width="15" height="14" fill="#FFF4FF"/>
<rect id="Rectangle 527" x="67.6669" y="88" width="15" height="14" fill="#FFF4FF"/>
<rect id="Rectangle 516" x="89.6669" y="34" width="15" height="14" fill="#FFF4FF"/>
<rect id="Rectangle 520" x="89.6669" y="52" width="15" height="14" fill="#FFF4FF"/>
<rect id="Rectangle 524" x="89.6669" y="70" width="15" height="14" fill="#FFF4FF"/>
<rect id="Rectangle 528" x="89.6669" y="88" width="15" height="14" fill="#FFF4FF"/>
<rect id="Rectangle 517" x="112.667" y="34" width="14" height="14" fill="#FFF4FF"/>
<rect id="Rectangle 521" x="112.667" y="52" width="14" height="14" fill="#FFF4FF"/>
<rect id="Rectangle 525" x="112.667" y="70" width="14" height="14" fill="#FFF4FF"/>
<rect id="Rectangle 529" x="112.667" y="88" width="14" height="14" fill="#FFF4FF"/>
</g>
</g>
<g id="Group 1000004985">
<g id="Group">
<g id="Group_2">
<path id="Vector" d="M39.7727 118.67H8.49582C8.12261 118.67 7.82007 118.983 7.82007 119.369V125.949C7.82007 126.335 8.12261 126.647 8.49582 126.647H39.7727C40.1459 126.647 40.4484 126.335 40.4484 125.949V119.369C40.4484 118.983 40.1459 118.67 39.7727 118.67Z" fill="url(#paint6_linear_1349_385)"/>
<path id="Vector_2" opacity="0.2" d="M24.1332 126.164C24.0153 126.164 23.9205 126.066 23.9205 125.944V119.338C23.9205 119.216 24.0153 119.118 24.1332 119.118C24.2511 119.118 24.3459 119.216 24.3459 119.338V125.944C24.3459 126.066 24.2511 126.164 24.1332 126.164Z" fill="#2E323D"/>
<g id="Group_3">
<path id="Vector_3" opacity="0.2" d="M8.73173 126.164C8.61383 126.164 8.51904 126.066 8.51904 125.944V119.338C8.51904 119.216 8.61383 119.118 8.73173 119.118C8.84964 119.118 8.94443 119.216 8.94443 119.338V125.944C8.94443 126.066 8.84964 126.164 8.73173 126.164Z" fill="#2E323D"/>
<path id="Vector_4" opacity="0.2" d="M10.3003 126.164C10.1824 126.164 10.0876 126.066 10.0876 125.944V119.338C10.0876 119.216 10.1824 119.118 10.3003 119.118C10.4182 119.118 10.513 119.216 10.513 119.338V125.944C10.513 126.066 10.4182 126.164 10.3003 126.164Z" fill="#2E323D"/>
<path id="Vector_5" opacity="0.2" d="M12.5762 126.164C12.4583 126.164 12.3635 126.066 12.3635 125.944V119.338C12.3635 119.216 12.4583 119.118 12.5762 119.118C12.6941 119.118 12.7889 119.216 12.7889 119.338V125.944C12.7889 126.066 12.6941 126.164 12.5762 126.164Z" fill="#2E323D"/>
<path id="Vector_6" opacity="0.2" d="M15.0863 126.164C14.9684 126.164 14.8737 126.066 14.8737 125.944V119.338C14.8737 119.216 14.9684 119.118 15.0863 119.118C15.2043 119.118 15.299 119.216 15.299 119.338V125.944C15.299 126.066 15.2043 126.164 15.0863 126.164Z" fill="#2E323D"/>
<path id="Vector_7" opacity="0.2" d="M17.8318 126.164C17.7139 126.164 17.6191 126.066 17.6191 125.944V119.338C17.6191 119.216 17.7139 119.118 17.8318 119.118C17.9497 119.118 18.0445 119.216 18.0445 119.338V125.944C18.0445 126.066 17.9497 126.164 17.8318 126.164Z" fill="#2E323D"/>
<path id="Vector_8" opacity="0.2" d="M20.8127 126.164C20.6948 126.164 20.6 126.066 20.6 125.944V119.338C20.6 119.216 20.6948 119.118 20.8127 119.118C20.9306 119.118 21.0254 119.216 21.0254 119.338V125.944C21.0254 126.066 20.9306 126.164 20.8127 126.164Z" fill="#2E323D"/>
<path id="Vector_9" opacity="0.2" d="M39.5362 119.12C39.6541 119.12 39.7489 119.218 39.7489 119.34V125.946C39.7489 126.068 39.6541 126.167 39.5362 126.167C39.4183 126.167 39.3235 126.068 39.3235 125.946V119.34C39.3235 119.218 39.4183 119.12 39.5362 119.12Z" fill="#2E323D"/>
<path id="Vector_10" opacity="0.2" d="M37.9653 119.12C38.0832 119.12 38.1779 119.218 38.1779 119.34V125.946C38.1779 126.068 38.0832 126.167 37.9653 126.167C37.8473 126.167 37.7526 126.068 37.7526 125.946V119.34C37.7526 119.218 37.8473 119.12 37.9653 119.12Z" fill="#2E323D"/>
<path id="Vector_11" opacity="0.2" d="M35.6906 119.12C35.8085 119.12 35.9033 119.218 35.9033 119.34V125.946C35.9033 126.068 35.8085 126.167 35.6906 126.167C35.5727 126.167 35.4779 126.068 35.4779 125.946V119.34C35.4779 119.218 35.5727 119.12 35.6906 119.12Z" fill="#2E323D"/>
<path id="Vector_12" opacity="0.2" d="M33.1817 119.12C33.2996 119.12 33.3944 119.218 33.3944 119.34V125.946C33.3944 126.068 33.2996 126.167 33.1817 126.167C33.0638 126.167 32.969 126.068 32.969 125.946V119.34C32.969 119.218 33.0638 119.12 33.1817 119.12Z" fill="#2E323D"/>
<path id="Vector_13" opacity="0.2" d="M30.435 119.12C30.5529 119.12 30.6477 119.218 30.6477 119.34V125.946C30.6477 126.068 30.5529 126.167 30.435 126.167C30.3171 126.167 30.2223 126.068 30.2223 125.946V119.34C30.2223 119.218 30.3171 119.12 30.435 119.12Z" fill="#2E323D"/>
<path id="Vector_14" opacity="0.2" d="M27.4566 119.12C27.5745 119.12 27.6693 119.218 27.6693 119.34V125.946C27.6693 126.068 27.5745 126.167 27.4566 126.167C27.3387 126.167 27.2439 126.068 27.2439 125.946V119.34C27.2439 119.218 27.3387 119.12 27.4566 119.12Z" fill="#2E323D"/>
</g>
<path id="Vector_15" opacity="0.2" d="M40.4485 119.381V125.942C40.4485 126.332 40.1407 126.652 39.7635 126.652H8.50748C8.20431 126.652 7.94512 126.449 7.85718 126.166H24.9594V119.123H27.8406V126.166H28.6783V119.123H30.8167V126.166H31.0967V119.123H33.3739V126.166H33.559V119.123H40.4045C40.4346 119.204 40.4508 119.29 40.4508 119.383L40.4485 119.381Z" fill="#2E323D"/>
<path id="Vector_16" opacity="0.2" d="M39.761 118.67H8.50495C8.12773 118.67 7.81763 118.986 7.81763 119.381V125.942C7.81763 126.018 7.8292 126.095 7.85234 126.164H8.52347V119.12H8.9192V126.164H9.89581V119.12H10.5137V126.164H12.129V119.12H13.0108V126.164H14.36V119.12H15.2995V126.164H16.6487V119.12H18.1136V126.164H18.7871V119.12H21.018V126.164H21.3559V119.12H40.402C40.3002 118.855 40.0526 118.67 39.7633 118.67H39.761Z" fill="white"/>
</g>
<g id="Group_4">
<path id="Vector_17" d="M40.5241 110.782H9.24729C8.87408 110.782 8.57153 111.095 8.57153 111.481V118.06C8.57153 118.446 8.87408 118.759 9.24729 118.759H40.5241C40.8974 118.759 41.1999 118.446 41.1999 118.06V111.481C41.1999 111.095 40.8974 110.782 40.5241 110.782Z" fill="url(#paint7_linear_1349_385)"/>
<path id="Vector_18" opacity="0.2" d="M24.8848 118.273C24.7669 118.273 24.6721 118.175 24.6721 118.053V111.447C24.6721 111.325 24.7669 111.227 24.8848 111.227C25.0027 111.227 25.0975 111.325 25.0975 111.447V118.053C25.0975 118.175 25.0027 118.273 24.8848 118.273Z" fill="#2E323D"/>
<g id="Group_5">
<path id="Vector_19" opacity="0.2" d="M9.48247 118.273C9.36456 118.273 9.26978 118.175 9.26978 118.053V111.447C9.26978 111.325 9.36456 111.227 9.48247 111.227C9.60037 111.227 9.69516 111.325 9.69516 111.447V118.053C9.69516 118.175 9.60037 118.273 9.48247 118.273Z" fill="#2E323D"/>
<path id="Vector_20" opacity="0.2" d="M11.0509 118.273C10.933 118.273 10.8383 118.175 10.8383 118.053V111.447C10.8383 111.325 10.933 111.227 11.0509 111.227C11.1689 111.227 11.2636 111.325 11.2636 111.447V118.053C11.2636 118.175 11.1689 118.273 11.0509 118.273Z" fill="#2E323D"/>
<path id="Vector_21" opacity="0.2" d="M13.3268 118.273C13.2089 118.273 13.1141 118.175 13.1141 118.053V111.447C13.1141 111.325 13.2089 111.227 13.3268 111.227C13.4447 111.227 13.5395 111.325 13.5395 111.447V118.053C13.5395 118.175 13.4447 118.273 13.3268 118.273Z" fill="#2E323D"/>
<path id="Vector_22" opacity="0.2" d="M15.837 118.273C15.7191 118.273 15.6243 118.175 15.6243 118.053V111.447C15.6243 111.325 15.7191 111.227 15.837 111.227C15.9549 111.227 16.0496 111.325 16.0496 111.447V118.053C16.0496 118.175 15.9549 118.273 15.837 118.273Z" fill="#2E323D"/>
<path id="Vector_23" opacity="0.2" d="M18.5824 118.273C18.4645 118.273 18.3698 118.175 18.3698 118.053V111.447C18.3698 111.325 18.4645 111.227 18.5824 111.227C18.7003 111.227 18.7951 111.325 18.7951 111.447V118.053C18.7951 118.175 18.7003 118.273 18.5824 118.273Z" fill="#2E323D"/>
<path id="Vector_24" opacity="0.2" d="M21.5633 118.273C21.4454 118.273 21.3506 118.175 21.3506 118.053V111.447C21.3506 111.325 21.4454 111.227 21.5633 111.227C21.6812 111.227 21.776 111.325 21.776 111.447V118.053C21.776 118.175 21.6812 118.273 21.5633 118.273Z" fill="#2E323D"/>
<path id="Vector_25" opacity="0.2" d="M40.2868 111.229C40.4047 111.229 40.4995 111.327 40.4995 111.449V118.055C40.4995 118.177 40.4047 118.276 40.2868 118.276C40.1689 118.276 40.0741 118.177 40.0741 118.055V111.449C40.0741 111.327 40.1689 111.229 40.2868 111.229Z" fill="#2E323D"/>
<path id="Vector_26" opacity="0.2" d="M38.7183 111.229C38.8362 111.229 38.931 111.327 38.931 111.449V118.055C38.931 118.177 38.8362 118.276 38.7183 118.276C38.6004 118.276 38.5056 118.177 38.5056 118.055V111.449C38.5056 111.327 38.6004 111.229 38.7183 111.229Z" fill="#2E323D"/>
<path id="Vector_27" opacity="0.2" d="M36.4412 111.229C36.5591 111.229 36.6539 111.327 36.6539 111.449V118.055C36.6539 118.177 36.5591 118.276 36.4412 118.276C36.3233 118.276 36.2285 118.177 36.2285 118.055V111.449C36.2285 111.327 36.3233 111.229 36.4412 111.229Z" fill="#2E323D"/>
<path id="Vector_28" opacity="0.2" d="M33.9323 111.229C34.0502 111.229 34.145 111.327 34.145 111.449V118.055C34.145 118.177 34.0502 118.276 33.9323 118.276C33.8144 118.276 33.7196 118.177 33.7196 118.055V111.449C33.7196 111.327 33.8144 111.229 33.9323 111.229Z" fill="#2E323D"/>
<path id="Vector_29" opacity="0.2" d="M31.188 111.229C31.3059 111.229 31.4007 111.327 31.4007 111.449V118.055C31.4007 118.177 31.3059 118.276 31.188 118.276C31.0701 118.276 30.9753 118.177 30.9753 118.055V111.449C30.9753 111.327 31.0701 111.229 31.188 111.229Z" fill="#2E323D"/>
<path id="Vector_30" opacity="0.2" d="M28.2072 111.229C28.3251 111.229 28.4199 111.327 28.4199 111.449V118.055C28.4199 118.177 28.3251 118.276 28.2072 118.276C28.0893 118.276 27.9945 118.177 27.9945 118.055V111.449C27.9945 111.327 28.0893 111.229 28.2072 111.229Z" fill="#2E323D"/>
</g>
<path id="Vector_31" opacity="0.2" d="M41.2 111.49V118.051C41.2 118.441 40.8922 118.761 40.5126 118.761H9.25663C8.95346 118.761 8.69426 118.558 8.60632 118.276H25.7085V111.232H28.5897V118.276H29.4275V111.232H31.5658V118.276H31.8458V111.232H34.1231V118.276H34.3082V111.232H41.1537C41.1838 111.313 41.2 111.399 41.2 111.492V111.49Z" fill="#2E323D"/>
<path id="Vector_32" opacity="0.2" d="M40.5149 110.782H9.25886C8.87933 110.782 8.57153 111.098 8.57153 111.492V118.053C8.57153 118.132 8.5831 118.206 8.60625 118.276H9.27737V111.232H9.67311V118.276H10.6497V111.232H11.2676V118.276H12.8829V111.232H13.7647V118.276H15.1139V111.232H16.0534V118.276H17.4026V111.232H18.8676V118.276H19.541V111.232H21.7719V118.276H22.1098V111.232H41.1559C41.0541 110.966 40.8065 110.782 40.5172 110.782H40.5149Z" fill="white"/>
</g>
<g id="Group_6">
<path id="Vector_33" d="M37.763 102.891H6.48618C6.11297 102.891 5.81042 103.204 5.81042 103.59V110.169C5.81042 110.555 6.11297 110.868 6.48618 110.868H37.763C38.1362 110.868 38.4388 110.555 38.4388 110.169V103.59C38.4388 103.204 38.1362 102.891 37.763 102.891Z" fill="url(#paint8_linear_1349_385)"/>
<path id="Vector_34" opacity="0.2" d="M22.126 110.385C22.0081 110.385 21.9133 110.286 21.9133 110.164V103.558C21.9133 103.436 22.0081 103.338 22.126 103.338C22.2439 103.338 22.3387 103.436 22.3387 103.558V110.164C22.3387 110.286 22.2439 110.385 22.126 110.385Z" fill="#2E323D"/>
<g id="Group_7">
<path id="Vector_35" opacity="0.2" d="M6.72124 110.385C6.60333 110.385 6.50854 110.286 6.50854 110.164V103.558C6.50854 103.436 6.60333 103.338 6.72124 103.338C6.83914 103.338 6.93393 103.436 6.93393 103.558V110.164C6.93393 110.286 6.83914 110.385 6.72124 110.385Z" fill="#2E323D"/>
<path id="Vector_36" opacity="0.2" d="M8.28972 110.385C8.17181 110.385 8.07703 110.286 8.07703 110.164V103.558C8.07703 103.436 8.17181 103.338 8.28972 103.338C8.40762 103.338 8.50241 103.436 8.50241 103.558V110.164C8.50241 110.286 8.40762 110.385 8.28972 110.385Z" fill="#2E323D"/>
<path id="Vector_37" opacity="0.2" d="M10.568 110.385C10.4501 110.385 10.3553 110.286 10.3553 110.164V103.558C10.3553 103.436 10.4501 103.338 10.568 103.338C10.6859 103.338 10.7807 103.436 10.7807 103.558V110.164C10.7807 110.286 10.6859 110.385 10.568 110.385Z" fill="#2E323D"/>
<path id="Vector_38" opacity="0.2" d="M13.0757 110.385C12.9578 110.385 12.863 110.286 12.863 110.164V103.558C12.863 103.436 12.9578 103.338 13.0757 103.338C13.1936 103.338 13.2884 103.436 13.2884 103.558V110.164C13.2884 110.286 13.1936 110.385 13.0757 110.385Z" fill="#2E323D"/>
<path id="Vector_39" opacity="0.2" d="M15.8212 110.385C15.7033 110.385 15.6085 110.286 15.6085 110.164V103.558C15.6085 103.436 15.7033 103.338 15.8212 103.338C15.9391 103.338 16.0339 103.436 16.0339 103.558V110.164C16.0339 110.286 15.9391 110.385 15.8212 110.385Z" fill="#2E323D"/>
<path id="Vector_40" opacity="0.2" d="M18.8021 110.385C18.6841 110.385 18.5894 110.286 18.5894 110.164V103.558C18.5894 103.436 18.6841 103.338 18.8021 103.338C18.92 103.338 19.0147 103.436 19.0147 103.558V110.164C19.0147 110.286 18.92 110.385 18.8021 110.385Z" fill="#2E323D"/>
<path id="Vector_41" opacity="0.2" d="M37.5256 103.338C37.6435 103.338 37.7382 103.436 37.7382 103.558V110.164C37.7382 110.286 37.6435 110.385 37.5256 110.385C37.4077 110.385 37.3129 110.286 37.3129 110.164V103.558C37.3129 103.436 37.4077 103.338 37.5256 103.338Z" fill="#2E323D"/>
<path id="Vector_42" opacity="0.2" d="M35.9571 103.338C36.075 103.338 36.1698 103.436 36.1698 103.558V110.164C36.1698 110.286 36.075 110.385 35.9571 110.385C35.8392 110.385 35.7444 110.286 35.7444 110.164V103.558C35.7444 103.436 35.8392 103.338 35.9571 103.338Z" fill="#2E323D"/>
<path id="Vector_43" opacity="0.2" d="M33.6824 103.338C33.8003 103.338 33.8951 103.436 33.8951 103.558V110.164C33.8951 110.286 33.8003 110.385 33.6824 110.385C33.5645 110.385 33.4697 110.286 33.4697 110.164V103.558C33.4697 103.436 33.5645 103.338 33.6824 103.338Z" fill="#2E323D"/>
<path id="Vector_44" opacity="0.2" d="M31.1711 103.338C31.289 103.338 31.3838 103.436 31.3838 103.558V110.164C31.3838 110.286 31.289 110.385 31.1711 110.385C31.0532 110.385 30.9584 110.286 30.9584 110.164V103.558C30.9584 103.436 31.0532 103.338 31.1711 103.338Z" fill="#2E323D"/>
<path id="Vector_45" opacity="0.2" d="M28.4268 103.338C28.5447 103.338 28.6395 103.436 28.6395 103.558V110.164C28.6395 110.286 28.5447 110.385 28.4268 110.385C28.3089 110.385 28.2141 110.286 28.2141 110.164V103.558C28.2141 103.436 28.3089 103.338 28.4268 103.338Z" fill="#2E323D"/>
<path id="Vector_46" opacity="0.2" d="M25.446 103.338C25.5639 103.338 25.6587 103.436 25.6587 103.558V110.164C25.6587 110.286 25.5639 110.385 25.446 110.385C25.3281 110.385 25.2333 110.286 25.2333 110.164V103.558C25.2333 103.436 25.3281 103.338 25.446 103.338Z" fill="#2E323D"/>
</g>
<path id="Vector_47" opacity="0.2" d="M38.4387 103.602V110.162C38.4387 110.552 38.131 110.873 37.7514 110.873H6.49539C6.19223 110.873 5.93303 110.669 5.84509 110.387H22.9473V103.343H25.8285V110.387H26.6662V103.343H28.8046V110.387H29.0846V103.343H31.3618V110.387H31.547V103.343H38.3925C38.4225 103.424 38.4387 103.511 38.4387 103.604V103.602Z" fill="#2E323D"/>
<path id="Vector_48" opacity="0.2" d="M37.7538 102.891H6.49775C6.12053 102.891 5.81042 103.207 5.81042 103.601V110.162C5.81042 110.239 5.822 110.315 5.84514 110.385H6.51627V103.341H6.912V110.385H7.88861V103.341H8.50651V110.385H10.1218V103.341H11.0036V110.385H12.3528V103.341H13.2923V110.385H14.6415V103.341H16.1064V110.385H16.7799V103.341H19.0108V110.385H19.3487V103.341H38.3948C38.293 103.075 38.0454 102.891 37.7561 102.891H37.7538Z" fill="white"/>
</g>
<g id="Group_8">
<path id="Vector_49" d="M39.7727 95H8.49582C8.12261 95 7.82007 95.3128 7.82007 95.6987V102.278C7.82007 102.664 8.12261 102.977 8.49582 102.977H39.7727C40.1459 102.977 40.4484 102.664 40.4484 102.278V95.6987C40.4484 95.3128 40.1459 95 39.7727 95Z" fill="url(#paint9_linear_1349_385)"/>
<path id="Vector_50" opacity="0.2" d="M24.1332 102.494C24.0153 102.494 23.9205 102.396 23.9205 102.274V95.6675C23.9205 95.5455 24.0153 95.4474 24.1332 95.4474C24.2511 95.4474 24.3459 95.5455 24.3459 95.6675V102.274C24.3459 102.396 24.2511 102.494 24.1332 102.494Z" fill="#2E323D"/>
<g id="Group_9">
<path id="Vector_51" opacity="0.2" d="M8.73173 102.494C8.61383 102.494 8.51904 102.396 8.51904 102.274V95.6675C8.51904 95.5455 8.61383 95.4474 8.73173 95.4474C8.84964 95.4474 8.94443 95.5455 8.94443 95.6675V102.274C8.94443 102.396 8.84964 102.494 8.73173 102.494Z" fill="#2E323D"/>
<path id="Vector_52" opacity="0.2" d="M10.3003 102.494C10.1824 102.494 10.0876 102.396 10.0876 102.274V95.6675C10.0876 95.5455 10.1824 95.4474 10.3003 95.4474C10.4182 95.4474 10.513 95.5455 10.513 95.6675V102.274C10.513 102.396 10.4182 102.494 10.3003 102.494Z" fill="#2E323D"/>
<path id="Vector_53" opacity="0.2" d="M12.5762 102.494C12.4583 102.494 12.3635 102.396 12.3635 102.274V95.6675C12.3635 95.5455 12.4583 95.4474 12.5762 95.4474C12.6941 95.4474 12.7889 95.5455 12.7889 95.6675V102.274C12.7889 102.396 12.6941 102.494 12.5762 102.494Z" fill="#2E323D"/>
<path id="Vector_54" opacity="0.2" d="M15.0863 102.494C14.9684 102.494 14.8737 102.396 14.8737 102.274V95.6675C14.8737 95.5455 14.9684 95.4474 15.0863 95.4474C15.2043 95.4474 15.299 95.5455 15.299 95.6675V102.274C15.299 102.396 15.2043 102.494 15.0863 102.494Z" fill="#2E323D"/>
<path id="Vector_55" opacity="0.2" d="M17.8318 102.494C17.7139 102.494 17.6191 102.396 17.6191 102.274V95.6675C17.6191 95.5455 17.7139 95.4474 17.8318 95.4474C17.9497 95.4474 18.0445 95.5455 18.0445 95.6675V102.274C18.0445 102.396 17.9497 102.494 17.8318 102.494Z" fill="#2E323D"/>
<path id="Vector_56" opacity="0.2" d="M20.8127 102.494C20.6948 102.494 20.6 102.396 20.6 102.274V95.6675C20.6 95.5455 20.6948 95.4474 20.8127 95.4474C20.9306 95.4474 21.0254 95.5455 21.0254 95.6675V102.274C21.0254 102.396 20.9306 102.494 20.8127 102.494Z" fill="#2E323D"/>
<path id="Vector_57" opacity="0.2" d="M39.5362 95.4498C39.6541 95.4498 39.7489 95.5479 39.7489 95.67V102.276C39.7489 102.398 39.6541 102.496 39.5362 102.496C39.4183 102.496 39.3235 102.398 39.3235 102.276V95.67C39.3235 95.5479 39.4183 95.4498 39.5362 95.4498Z" fill="#2E323D"/>
<path id="Vector_58" opacity="0.2" d="M37.9653 95.4498C38.0832 95.4498 38.1779 95.5479 38.1779 95.67V102.276C38.1779 102.398 38.0832 102.496 37.9653 102.496C37.8473 102.496 37.7526 102.398 37.7526 102.276V95.67C37.7526 95.5479 37.8473 95.4498 37.9653 95.4498Z" fill="#2E323D"/>
<path id="Vector_59" opacity="0.2" d="M35.6906 95.4498C35.8085 95.4498 35.9033 95.5479 35.9033 95.67V102.276C35.9033 102.398 35.8085 102.496 35.6906 102.496C35.5727 102.496 35.4779 102.398 35.4779 102.276V95.67C35.4779 95.5479 35.5727 95.4498 35.6906 95.4498Z" fill="#2E323D"/>
<path id="Vector_60" opacity="0.2" d="M33.1817 95.4498C33.2996 95.4498 33.3944 95.5479 33.3944 95.67V102.276C33.3944 102.398 33.2996 102.496 33.1817 102.496C33.0638 102.496 32.969 102.398 32.969 102.276V95.67C32.969 95.5479 33.0638 95.4498 33.1817 95.4498Z" fill="#2E323D"/>
<path id="Vector_61" opacity="0.2" d="M30.435 95.4498C30.5529 95.4498 30.6477 95.5479 30.6477 95.67V102.276C30.6477 102.398 30.5529 102.496 30.435 102.496C30.3171 102.496 30.2223 102.398 30.2223 102.276V95.67C30.2223 95.5479 30.3171 95.4498 30.435 95.4498Z" fill="#2E323D"/>
<path id="Vector_62" opacity="0.2" d="M27.4566 95.4498C27.5745 95.4498 27.6693 95.5479 27.6693 95.67V102.276C27.6693 102.398 27.5745 102.496 27.4566 102.496C27.3387 102.496 27.2439 102.398 27.2439 102.276V95.67C27.2439 95.5479 27.3387 95.4498 27.4566 95.4498Z" fill="#2E323D"/>
</g>
<path id="Vector_63" opacity="0.2" d="M40.4485 95.7106V102.271C40.4485 102.661 40.1407 102.982 39.7635 102.982H8.50748C8.20431 102.982 7.94512 102.778 7.85718 102.496H24.9594V95.4521H27.8406V102.496H28.6783V95.4521H30.8167V102.496H31.0967V95.4521H33.3739V102.496H33.559V95.4521H40.4045C40.4346 95.5335 40.4508 95.6196 40.4508 95.7129L40.4485 95.7106Z" fill="#2E323D"/>
<path id="Vector_64" opacity="0.2" d="M39.761 95H8.50495C8.12773 95 7.81763 95.3158 7.81763 95.7106V102.271C7.81763 102.348 7.8292 102.424 7.85234 102.494H8.52347V95.4498H8.9192V102.494H9.89581V95.4498H10.5137V102.494H12.129V95.4498H13.0108V102.494H14.36V95.4498H15.2995V102.494H16.6487V95.4498H18.1136V102.494H18.7871V95.4498H21.018V102.494H21.3559V95.4498H40.402C40.3002 95.1842 40.0526 95 39.7633 95H39.761Z" fill="white"/>
</g>
</g>
<g id="Group_10">
<path id="Vector_65" d="M35.6804 95.0299L6.87268 94.9538L4.24079 94.9464C3.75627 94.9473 3.37976 94.5549 3.39674 94.0693L3.61474 87.9794C3.62998 87.4954 4.03758 87.1046 4.52036 87.1054L12.2646 87.1244L35.96 87.1889C36.4445 87.188 36.8226 87.5821 36.8074 88.066L36.5894 94.1559C36.5691 94.6415 36.165 95.029 35.6804 95.0299Z" fill="url(#paint10_linear_1349_385)"/>
<path id="Vector_66" opacity="0.2" d="M19.9794 94.5114C19.8596 94.5104 19.7671 94.4131 19.7721 94.2934L20.0069 87.8011C20.0119 87.6814 20.1125 87.5857 20.2323 87.5867C20.3522 87.5878 20.4447 87.685 20.4397 87.8048L20.2048 94.2971C20.1998 94.4168 20.0992 94.5124 19.9794 94.5114Z" fill="#2E323D"/>
<g id="Group_11">
<path id="Vector_67" opacity="0.2" d="M4.30999 94.4708C4.19016 94.4697 4.09766 94.3725 4.10267 94.2527L4.3375 87.7604C4.34251 87.6407 4.44307 87.5451 4.5629 87.5461C4.68273 87.5471 4.77522 87.6444 4.77022 87.7641L4.53538 94.2564C4.53038 94.3761 4.42982 94.4718 4.30999 94.4708Z" fill="#2E323D"/>
<path id="Vector_68" opacity="0.2" d="M5.90801 94.4742C5.78818 94.4732 5.69568 94.3759 5.70069 94.2562L5.93552 87.7639C5.94052 87.6441 6.04109 87.5485 6.16092 87.5495C6.28075 87.5505 6.37324 87.6478 6.36824 87.7675L6.13341 94.2598C6.1284 94.3796 6.02784 94.4752 5.90801 94.4742Z" fill="#2E323D"/>
<path id="Vector_69" opacity="0.2" d="M8.22234 94.481C8.10251 94.48 8.01002 94.3827 8.01502 94.263L8.24985 87.7707C8.25486 87.651 8.35542 87.5553 8.47525 87.5563C8.59508 87.5574 8.68758 87.6546 8.68257 87.7744L8.44774 94.2667C8.44273 94.3864 8.34217 94.482 8.22234 94.481Z" fill="#2E323D"/>
<path id="Vector_70" opacity="0.2" d="M10.7758 94.4891C10.656 94.4881 10.5635 94.3908 10.5685 94.2711L10.8033 87.7787C10.8083 87.659 10.9089 87.5634 11.0287 87.5644C11.1485 87.5654 11.241 87.6627 11.236 87.7824L11.0012 94.2747C10.9962 94.3945 10.8956 94.4901 10.7758 94.4891Z" fill="#2E323D"/>
<path id="Vector_71" opacity="0.2" d="M13.5674 94.4943C13.4476 94.4933 13.3551 94.396 13.3601 94.2763L13.5949 87.784C13.5999 87.6643 13.7005 87.5686 13.8203 87.5697C13.9402 87.5707 14.0327 87.6679 14.0277 87.7877L13.7928 94.28C13.7878 94.3997 13.6873 94.4953 13.5674 94.4943Z" fill="#2E323D"/>
<path id="Vector_72" opacity="0.2" d="M16.6006 94.5036C16.4808 94.5026 16.3883 94.4053 16.3933 94.2856L16.6281 87.7933C16.6332 87.6735 16.7337 87.5779 16.8535 87.5789C16.9734 87.5799 17.0659 87.6772 17.0609 87.7969L16.826 94.2893C16.821 94.409 16.7205 94.5046 16.6006 94.5036Z" fill="#2E323D"/>
<path id="Vector_73" opacity="0.2" d="M35.8958 87.6284C36.0156 87.6294 36.1081 87.7267 36.1031 87.8464L35.8683 94.3387C35.8633 94.4584 35.7627 94.554 35.6429 94.553C35.523 94.552 35.4305 94.4548 35.4356 94.335L35.6704 87.8427C35.6754 87.723 35.776 87.6274 35.8958 87.6284Z" fill="#2E323D"/>
<path id="Vector_74" opacity="0.2" d="M34.2995 87.6232C34.4193 87.6243 34.5118 87.7215 34.5068 87.8413L34.272 94.3336C34.2669 94.4533 34.1664 94.5489 34.0466 94.5479C33.9267 94.5469 33.8342 94.4496 33.8392 94.3299L34.0741 87.8376C34.0791 87.7179 34.1796 87.6222 34.2995 87.6232Z" fill="#2E323D"/>
<path id="Vector_75" opacity="0.2" d="M31.9843 87.6191C32.1041 87.6201 32.1966 87.7174 32.1916 87.8371L31.9568 94.3294C31.9518 94.4491 31.8512 94.5448 31.7314 94.5438C31.6115 94.5427 31.519 94.4455 31.5241 94.3257L31.7589 87.8334C31.7639 87.7137 31.8645 87.6181 31.9843 87.6191Z" fill="#2E323D"/>
<path id="Vector_76" opacity="0.2" d="M29.4317 87.6118C29.5515 87.6128 29.644 87.7101 29.639 87.8298L29.4042 94.3221C29.3992 94.4418 29.2986 94.5374 29.1788 94.5364C29.0589 94.5354 28.9664 94.4382 28.9714 94.3184L29.2063 87.8261C29.2113 87.7064 29.3118 87.6108 29.4317 87.6118Z" fill="#2E323D"/>
<path id="Vector_77" opacity="0.2" d="M26.6383 87.6048C26.7582 87.6058 26.8507 87.7031 26.8457 87.8228L26.6108 94.3151C26.6058 94.4349 26.5053 94.5305 26.3854 94.5295C26.2656 94.5285 26.1731 94.4312 26.1781 94.3115L26.4129 87.8192C26.4179 87.6994 26.5185 87.6038 26.6383 87.6048Z" fill="#2E323D"/>
<path id="Vector_78" opacity="0.2" d="M23.6086 87.5957C23.7284 87.5967 23.8209 87.6939 23.8159 87.8137L23.581 94.306C23.576 94.4257 23.4755 94.5213 23.3556 94.5203C23.2358 94.5193 23.1433 94.422 23.1483 94.3023L23.3832 87.81C23.3882 87.6903 23.4887 87.5946 23.6086 87.5957Z" fill="#2E323D"/>
</g>
<path id="Vector_79" opacity="0.2" d="M36.8149 87.8867L36.5836 94.3341C36.5692 94.7182 36.2449 95.0299 35.8604 95.0283L4.06439 94.9451C3.75643 94.9442 3.50008 94.7441 3.42016 94.4656L20.818 94.5116L21.0659 87.5885L23.9957 87.5967L23.7479 94.5197L24.5986 94.522L24.8464 87.5989L27.0221 87.6057L26.7743 94.5288L27.0589 94.5295L27.3068 87.6065L29.6241 87.6128L29.3762 94.5358L29.5643 94.5358L29.8122 87.6127L36.7757 87.6302C36.8041 87.7086 36.8171 87.7952 36.8149 87.8867Z" fill="#2E323D"/>
<path id="Vector_80" opacity="0.2" d="M36.1419 87.1893L4.34599 87.1061C3.96146 87.1045 3.6355 87.4145 3.6227 87.8003L3.39141 94.2478C3.38821 94.3243 3.39847 94.3975 3.41885 94.4676L4.10135 94.47L4.35093 87.5453L4.7521 87.5471L4.50251 94.4718L5.49472 94.4735L5.74256 87.5505L6.37181 87.5525L6.12397 94.4755L7.76538 94.4795L8.01323 87.5564L8.9105 87.559L8.66265 94.4821L10.036 94.4854L10.2839 87.5624L11.2411 87.5655L10.9932 94.4885L12.3666 94.4918L12.6145 87.5688L14.1044 87.5731L13.8565 94.4962L14.5424 94.4986L14.7902 87.5756L17.0575 87.5815L16.8097 94.5045L17.1543 94.5058L17.4021 87.5828L36.776 87.6338C36.6837 87.3735 36.4349 87.1918 36.1419 87.1893Z" fill="white"/>
</g>
</g>
</g>
<defs>
<linearGradient id="paint0_linear_1349_385" x1="20.6669" y1="20.7109" x2="113.821" y2="136.633" gradientUnits="userSpaceOnUse">
<stop stop-color="#FFBAF5"/>
<stop offset="0.986917" stop-color="#D73BC2"/>
</linearGradient>
<linearGradient id="paint1_linear_1349_385" x1="46.6669" y1="0" x2="46.6669" y2="14" gradientUnits="userSpaceOnUse">
<stop/>
<stop offset="1" stop-color="#ABAAAA"/>
</linearGradient>
<linearGradient id="paint2_linear_1349_385" x1="65.6669" y1="0" x2="65.6669" y2="14" gradientUnits="userSpaceOnUse">
<stop/>
<stop offset="1" stop-color="#ABAAAA"/>
</linearGradient>
<linearGradient id="paint3_linear_1349_385" x1="84.6669" y1="0" x2="84.6669" y2="14" gradientUnits="userSpaceOnUse">
<stop/>
<stop offset="1" stop-color="#ABAAAA"/>
</linearGradient>
<linearGradient id="paint4_linear_1349_385" x1="103.667" y1="0" x2="103.667" y2="14" gradientUnits="userSpaceOnUse">
<stop/>
<stop offset="1" stop-color="#ABAAAA"/>
</linearGradient>
<linearGradient id="paint5_linear_1349_385" x1="122.667" y1="0" x2="122.667" y2="14" gradientUnits="userSpaceOnUse">
<stop/>
<stop offset="1" stop-color="#ABAAAA"/>
</linearGradient>
<linearGradient id="paint6_linear_1349_385" x1="7.82007" y1="119.605" x2="10.6058" y2="131.986" gradientUnits="userSpaceOnUse">
<stop stop-color="#FFBAF5"/>
<stop offset="0.986917" stop-color="#D73BC2"/>
</linearGradient>
<linearGradient id="paint7_linear_1349_385" x1="8.57153" y1="111.717" x2="11.3573" y2="124.097" gradientUnits="userSpaceOnUse">
<stop stop-color="#FFBAF5"/>
<stop offset="0.986917" stop-color="#D73BC2"/>
</linearGradient>
<linearGradient id="paint8_linear_1349_385" x1="5.81043" y1="103.826" x2="8.59619" y2="116.206" gradientUnits="userSpaceOnUse">
<stop stop-color="#FFBAF5"/>
<stop offset="0.986917" stop-color="#D73BC2"/>
</linearGradient>
<linearGradient id="paint9_linear_1349_385" x1="7.82007" y1="95.9348" x2="10.6058" y2="108.315" gradientUnits="userSpaceOnUse">
<stop stop-color="#FFBAF5"/>
<stop offset="0.986917" stop-color="#D73BC2"/>
</linearGradient>
<linearGradient id="paint10_linear_1349_385" x1="18.5591" y1="73.413" x2="16.9876" y2="107.352" gradientUnits="userSpaceOnUse">
<stop stop-color="#FFBAF5"/>
<stop offset="0.986917" stop-color="#D73BC2"/>
</linearGradient>
</defs>
</svg>
