<svg viewBox="0 0 163 182" fill="none" xmlns="http://www.w3.org/2000/svg"><g id="personalBankingIcon"><g id="Person"><ellipse id="Ellipse 109" cx="105.625" cy="29.25" rx="28.7083" ry="29.25" fill="#D9D9D9"></ellipse><path id="Ellipse 110" d="M162.5 124.583C162.5 117.043 161.029 109.577 158.171 102.611C155.312 95.6448 151.123 89.3152 145.842 83.9836C140.56 78.652 134.291 74.4227 127.39 71.5372C120.49 68.6518 113.094 67.1667 105.625 67.1667C98.1561 67.1667 90.7603 68.6518 83.8599 71.5372C76.9595 74.4227 70.6896 78.652 65.4083 83.9836C60.127 89.3152 55.9376 95.6448 53.0793 102.611C50.2211 109.577 48.75 117.043 48.75 124.583L105.625 124.583H162.5Z" fill="url(#paint0_linear_33_8)"></path></g><g id="Card"><rect id="Rectangle 491" y="29.25" width="109.417" height="66.0833" rx="8" fill="url(#paint1_linear_33_8)"></rect><rect id="Rectangle 492" y="42.25" width="109.417" height="16.25" fill="url(#paint2_linear_33_8)"></rect><rect id="Rectangle 493" x="9.75" y="73.6667" width="30.3333" height="2.16667" rx="1.08333" fill="#FFE8FF"></rect><rect id="Rectangle 494" x="9.75" y="78" width="30.3333" height="2.16667" rx="1.08333" fill="#FFE8FF"></rect><rect id="Rectangle 495" x="72.5833" y="73.6667" width="24.9167" height="10.8333" rx="5.41667" fill="#FDD1FC"></rect></g></g><defs><linearGradient id="paint0_linear_33_8" x1="105.625" y1="67.1667" x2="105.625" y2="182" gradientUnits="userSpaceOnUse"><stop stop-color="#981D87"></stop><stop offset="0.487852" stop-color="#AF469F"></stop></linearGradient><linearGradient id="paint1_linear_33_8" x1="0.00000159779" y1="36.9941" x2="45.7584" y2="119.315" gradientUnits="userSpaceOnUse"><stop stop-color="#FFBAF5"></stop><stop offset="0.986917" stop-color="#D73BC2"></stop></linearGradient><linearGradient id="paint2_linear_33_8" x1="109.417" y1="45.5" x2="-3.25" y2="44.4167" gradientUnits="userSpaceOnUse"><stop stop-color="#AB5DAB"></stop><stop offset="0.536458" stop-color="#FFF4FF"></stop></linearGradient></defs></svg>