<svg width="64" height="33" viewBox="0 0 64 33" fill="none" xmlns="http://www.w3.org/2000/svg">
<path d="M1.48991 24.792H34.1477C34.5374 24.792 34.8533 25.1082 34.8533 25.4983V32.1504C34.8533 32.5405 34.5374 32.8567 34.1477 32.8567H1.48991C1.10022 32.8567 0.784313 32.5405 0.784313 32.1504V25.4983C0.784313 25.1082 1.10022 24.792 1.48991 24.792Z" fill="url(#paint0_linear_1164_12466)"/>
<path opacity="0.2" d="M17.8194 32.3684C17.9427 32.3684 18.0417 32.2692 18.0417 32.1458V25.4672C18.0417 25.3438 17.9427 25.2446 17.8194 25.2446C17.6962 25.2446 17.5971 25.3438 17.5971 25.4672V32.1458C17.5971 32.2692 17.6962 32.3684 17.8194 32.3684Z" fill="#981D87"/>
<path opacity="0.2" d="M33.8998 32.3684C34.023 32.3684 34.1221 32.2692 34.1221 32.1458V25.4672C34.1221 25.3438 34.023 25.2446 33.8998 25.2446C33.7765 25.2446 33.6775 25.3438 33.6775 25.4672V32.1458C33.6775 32.2692 33.7765 32.3684 33.8998 32.3684Z" fill="#981D87"/>
<path opacity="0.2" d="M32.2628 32.3684C32.386 32.3684 32.4851 32.2692 32.4851 32.1458V25.4672C32.4851 25.3438 32.386 25.2446 32.2628 25.2446C32.1396 25.2446 32.0405 25.3438 32.0405 25.4672V32.1458C32.0405 32.2692 32.1396 32.3684 32.2628 32.3684Z" fill="#981D87"/>
<path opacity="0.2" d="M29.8854 32.3684C30.0086 32.3684 30.1077 32.2692 30.1077 32.1458V25.4672C30.1077 25.3438 30.0086 25.2446 29.8854 25.2446C29.7621 25.2446 29.663 25.3438 29.663 25.4672V32.1458C29.663 32.2692 29.7621 32.3684 29.8854 32.3684Z" fill="#981D87"/>
<path opacity="0.2" d="M27.2652 32.3684C27.3885 32.3684 27.4875 32.2692 27.4875 32.1458V25.4672C27.4875 25.3438 27.3885 25.2446 27.2652 25.2446C27.142 25.2446 27.0429 25.3438 27.0429 25.4672V32.1458C27.0429 32.2692 27.142 32.3684 27.2652 32.3684Z" fill="#981D87"/>
<path opacity="0.2" d="M24.3981 32.3684C24.5213 32.3684 24.6204 32.2692 24.6204 32.1458V25.4672C24.6204 25.3438 24.5213 25.2446 24.3981 25.2446C24.2748 25.2446 24.1757 25.3438 24.1757 25.4672V32.1458C24.1757 32.2692 24.2748 32.3684 24.3981 32.3684Z" fill="#981D87"/>
<path opacity="0.2" d="M21.2862 32.3684C21.4095 32.3684 21.5085 32.2692 21.5085 32.1458V25.4672C21.5085 25.3438 21.4095 25.2446 21.2862 25.2446C21.163 25.2446 21.0639 25.3438 21.0639 25.4672V32.1458C21.0639 32.2692 21.163 32.3684 21.2862 32.3684Z" fill="#981D87"/>
<path opacity="0.2" d="M1.73569 25.2471C1.61246 25.2471 1.51339 25.3462 1.51339 25.4696V32.1483C1.51339 32.2716 1.61246 32.3708 1.73569 32.3708C1.85893 32.3708 1.95801 32.2716 1.95801 32.1483V25.4696C1.95801 25.3462 1.85893 25.2471 1.73569 25.2471Z" fill="#981D87"/>
<path opacity="0.2" d="M3.37462 25.2471C3.25138 25.2471 3.15231 25.3462 3.15231 25.4696V32.1483C3.15231 32.2716 3.25138 32.3708 3.37462 32.3708C3.49786 32.3708 3.59692 32.2716 3.59692 32.1483V25.4696C3.59692 25.3462 3.49786 25.2471 3.37462 25.2471Z" fill="#981D87"/>
<path opacity="0.2" d="M5.7501 25.2471C5.62686 25.2471 5.52779 25.3462 5.52779 25.4696V32.1483C5.52779 32.2716 5.62686 32.3708 5.7501 32.3708C5.87334 32.3708 5.97241 32.2716 5.97241 32.1483V25.4696C5.97241 25.3462 5.87334 25.2471 5.7501 25.2471Z" fill="#981D87"/>
<path opacity="0.2" d="M8.37046 25.2471C8.24722 25.2471 8.14816 25.3462 8.14816 25.4696V32.1483C8.14816 32.2716 8.24722 32.3708 8.37046 32.3708C8.4937 32.3708 8.59277 32.2716 8.59277 32.1483V25.4696C8.59277 25.3462 8.4937 25.2471 8.37046 25.2471Z" fill="#981D87"/>
<path opacity="0.2" d="M11.2374 25.2471C11.1142 25.2471 11.0151 25.3462 11.0151 25.4696V32.1483C11.0151 32.2716 11.1142 32.3708 11.2374 32.3708C11.3606 32.3708 11.4597 32.2716 11.4597 32.1483V25.4696C11.4597 25.3462 11.3606 25.2471 11.2374 25.2471Z" fill="#981D87"/>
<path opacity="0.2" d="M14.3475 25.2471C14.2243 25.2471 14.1252 25.3462 14.1252 25.4696V32.1483C14.1252 32.2716 14.2243 32.3708 14.3475 32.3708C14.4707 32.3708 14.5698 32.2716 14.5698 32.1483V25.4696C14.5698 25.3462 14.4707 25.2471 14.3475 25.2471Z" fill="#981D87"/>
<path opacity="0.2" d="M0.783428 25.5103V32.143C0.783428 32.5373 1.10481 32.8614 1.49868 32.8614H34.1347C34.4513 32.8614 34.7219 32.6558 34.8137 32.3703H16.9565V25.249H13.948V32.3703H13.0733V25.249H10.8405V32.3703H10.5481V25.249H8.17039V32.3703H7.97708V25.249H0.829342C0.797928 25.3313 0.781017 25.4183 0.781017 25.5127L0.783428 25.5103Z" fill="#981D87"/>
<path opacity="0.2" d="M1.50153 24.792H34.1376C34.5314 24.792 34.8552 25.1113 34.8552 25.5104V32.1431C34.8552 32.2205 34.8431 32.2979 34.819 32.3681H34.1182V25.2468H33.705V32.3681H32.6853V25.2468H32.0401V32.3681H30.3535V25.2468H29.4328V32.3681H28.024V25.2468H27.043V32.3681H25.6342V25.2468H24.1046V32.3681H23.4014V25.2468H21.072V32.3681H20.7192V25.2468H0.832184C0.938507 24.9783 1.19706 24.792 1.49911 24.792H1.50153Z" fill="white"/>
<path d="M0.705242 16.8164H33.363C33.7527 16.8164 34.0686 17.1326 34.0686 17.5227V24.1748C34.0686 24.5649 33.7527 24.8811 33.363 24.8811H0.705242C0.315552 24.8811 -0.000354767 24.5649 -0.000354767 24.1748V17.5227C-0.000354767 17.1326 0.315552 16.8164 0.705242 16.8164Z" fill="url(#paint1_linear_1164_12466)"/>
<path opacity="0.2" d="M17.0348 24.3903C17.158 24.3903 17.2571 24.2912 17.2571 24.1678V17.4891C17.2571 17.3658 17.158 17.2666 17.0348 17.2666C16.9115 17.2666 16.8125 17.3658 16.8125 17.4891V24.1678C16.8125 24.2912 16.9115 24.3903 17.0348 24.3903Z" fill="#981D87"/>
<path opacity="0.2" d="M33.1183 24.3903C33.2415 24.3903 33.3406 24.2912 33.3406 24.1678V17.4891C33.3406 17.3658 33.2415 17.2666 33.1183 17.2666C32.995 17.2666 32.896 17.3658 32.896 17.4891V24.1678C32.896 24.2912 32.995 24.3903 33.1183 24.3903Z" fill="#981D87"/>
<path opacity="0.2" d="M31.4813 24.3903C31.6045 24.3903 31.7036 24.2912 31.7036 24.1678V17.4891C31.7036 17.3658 31.6045 17.2666 31.4813 17.2666C31.3581 17.2666 31.259 17.3658 31.259 17.4891V24.1678C31.259 24.2912 31.3581 24.3903 31.4813 24.3903Z" fill="#981D87"/>
<path opacity="0.2" d="M29.1039 24.3903C29.2271 24.3903 29.3262 24.2912 29.3262 24.1678V17.4891C29.3262 17.3658 29.2271 17.2666 29.1039 17.2666C28.9806 17.2666 28.8816 17.3658 28.8816 17.4891V24.1678C28.8816 24.2912 28.9806 24.3903 29.1039 24.3903Z" fill="#981D87"/>
<path opacity="0.2" d="M26.4837 24.3903C26.607 24.3903 26.7061 24.2912 26.7061 24.1678V17.4891C26.7061 17.3658 26.607 17.2666 26.4837 17.2666C26.3605 17.2666 26.2614 17.3658 26.2614 17.4891V24.1678C26.2614 24.2912 26.3605 24.3903 26.4837 24.3903Z" fill="#981D87"/>
<path opacity="0.2" d="M23.6166 24.3903C23.7398 24.3903 23.8389 24.2912 23.8389 24.1678V17.4891C23.8389 17.3658 23.7398 17.2666 23.6166 17.2666C23.4933 17.2666 23.3942 17.3658 23.3942 17.4891V24.1678C23.3942 24.2912 23.4933 24.3903 23.6166 24.3903Z" fill="#981D87"/>
<path opacity="0.2" d="M20.5047 24.3903C20.628 24.3903 20.7271 24.2912 20.7271 24.1678V17.4891C20.7271 17.3658 20.628 17.2666 20.5047 17.2666C20.3815 17.2666 20.2824 17.3658 20.2824 17.4891V24.1678C20.2824 24.2912 20.3815 24.3903 20.5047 24.3903Z" fill="#981D87"/>
<path opacity="0.2" d="M0.954201 17.269C0.830964 17.269 0.731895 17.3682 0.731895 17.4916V24.1702C0.731895 24.2936 0.830964 24.3928 0.954201 24.3928C1.07744 24.3928 1.17651 24.2936 1.17651 24.1702V17.4916C1.17651 17.3682 1.07744 17.269 0.954201 17.269Z" fill="#981D87"/>
<path opacity="0.2" d="M2.59116 17.269C2.46793 17.269 2.36886 17.3682 2.36886 17.4916V24.1702C2.36886 24.2936 2.46793 24.3928 2.59116 24.3928C2.7144 24.3928 2.81348 24.2936 2.81348 24.1702V17.4916C2.81348 17.3682 2.7144 17.269 2.59116 17.269Z" fill="#981D87"/>
<path opacity="0.2" d="M4.96861 17.269C4.84537 17.269 4.7463 17.3682 4.7463 17.4916V24.1702C4.7463 24.2936 4.84537 24.3928 4.96861 24.3928C5.09184 24.3928 5.19092 24.2936 5.19092 24.1702V17.4916C5.19092 17.3682 5.09184 17.269 4.96861 17.269Z" fill="#981D87"/>
<path opacity="0.2" d="M7.58897 17.269C7.46573 17.269 7.36666 17.3682 7.36666 17.4916V24.1702C7.36666 24.2936 7.46573 24.3928 7.58897 24.3928C7.7122 24.3928 7.81128 24.2936 7.81128 24.1702V17.4916C7.81128 17.3682 7.7122 17.269 7.58897 17.269Z" fill="#981D87"/>
<path opacity="0.2" d="M10.454 17.269C10.3307 17.269 10.2317 17.3682 10.2317 17.4916V24.1702C10.2317 24.2936 10.3307 24.3928 10.454 24.3928C10.5772 24.3928 10.6763 24.2936 10.6763 24.1702V17.4916C10.6763 17.3682 10.5772 17.269 10.454 17.269Z" fill="#981D87"/>
<path opacity="0.2" d="M13.566 17.269C13.4428 17.269 13.3437 17.3682 13.3437 17.4916V24.1702C13.3437 24.2936 13.4428 24.3928 13.566 24.3928C13.6893 24.3928 13.7883 24.2936 13.7883 24.1702V17.4916C13.7883 17.3682 13.6893 17.269 13.566 17.269Z" fill="#981D87"/>
<path opacity="0.2" d="M0.000247955 17.5322V24.1649C0.000247955 24.5592 0.321632 24.8834 0.717922 24.8834H33.3539C33.6705 24.8834 33.9411 24.6778 34.033 24.3923H16.1757V17.271H13.1673V24.3923H12.2925V17.271H10.0598V24.3923H9.76738V17.271H7.38963V24.3923H7.19631V17.271H0.0485802C0.0171661 17.3532 0.000247955 17.4403 0.000247955 17.5347V17.5322Z" fill="#981D87"/>
<path opacity="0.2" d="M0.714905 16.8164H33.3509C33.7472 16.8164 34.0686 17.1357 34.0686 17.5348V24.1675C34.0686 24.2474 34.0565 24.3223 34.0324 24.3925H33.3316V17.2712H32.9184V24.3925H31.8987V17.2712H31.2535V24.3925H29.5668V17.2712H28.6462V24.3925H27.2374V17.2712H26.2564V24.3925H24.8476V17.2712H23.318V24.3925H22.6148V17.2712H20.2854V24.3925H19.9326V17.2712H0.0455627C0.151886 17.0027 0.410442 16.8164 0.712494 16.8164H0.714905Z" fill="white"/>
<path d="M3.58829 8.83887H36.2461C36.6358 8.83887 36.9517 9.1551 36.9517 9.5452V16.1972C36.9517 16.5873 36.6358 16.9036 36.2461 16.9036H3.58829C3.19861 16.9036 2.8827 16.5873 2.8827 16.1972V9.5452C2.8827 9.1551 3.19861 8.83887 3.58829 8.83887Z" fill="url(#paint2_linear_1164_12466)"/>
<path opacity="0.2" d="M19.9159 16.4152C20.0391 16.4152 20.1382 16.3161 20.1382 16.1927V9.51404C20.1382 9.39068 20.0391 9.2915 19.9159 9.2915C19.7926 9.2915 19.6936 9.39068 19.6936 9.51404V16.1927C19.6936 16.3161 19.7926 16.4152 19.9159 16.4152Z" fill="#981D87"/>
<path opacity="0.2" d="M36.0013 16.4152C36.1246 16.4152 36.2236 16.3161 36.2236 16.1927V9.51404C36.2236 9.39068 36.1246 9.2915 36.0013 9.2915C35.8781 9.2915 35.779 9.39068 35.779 9.51404V16.1927C35.779 16.3161 35.8781 16.4152 36.0013 16.4152Z" fill="#981D87"/>
<path opacity="0.2" d="M34.3644 16.4152C34.4876 16.4152 34.5867 16.3161 34.5867 16.1927V9.51404C34.5867 9.39068 34.4876 9.2915 34.3644 9.2915C34.2411 9.2915 34.142 9.39068 34.142 9.51404V16.1927C34.142 16.3161 34.2411 16.4152 34.3644 16.4152Z" fill="#981D87"/>
<path opacity="0.2" d="M31.985 16.4152C32.1082 16.4152 32.2073 16.3161 32.2073 16.1927V9.51404C32.2073 9.39068 32.1082 9.2915 31.985 9.2915C31.8617 9.2915 31.7627 9.39068 31.7627 9.51404V16.1927C31.7627 16.3161 31.8617 16.4152 31.985 16.4152Z" fill="#981D87"/>
<path opacity="0.2" d="M29.3668 16.4152C29.49 16.4152 29.5891 16.3161 29.5891 16.1927V9.51404C29.5891 9.39068 29.49 9.2915 29.3668 9.2915C29.2436 9.2915 29.1445 9.39068 29.1445 9.51404V16.1927C29.1445 16.3161 29.2436 16.4152 29.3668 16.4152Z" fill="#981D87"/>
<path opacity="0.2" d="M26.4996 16.4152C26.6229 16.4152 26.7219 16.3161 26.7219 16.1927V9.51404C26.7219 9.39068 26.6229 9.2915 26.4996 9.2915C26.3764 9.2915 26.2773 9.39068 26.2773 9.51404V16.1927C26.2773 16.3161 26.3764 16.4152 26.4996 16.4152Z" fill="#981D87"/>
<path opacity="0.2" d="M23.3878 16.4152C23.511 16.4152 23.6101 16.3161 23.6101 16.1927V9.51404C23.6101 9.39068 23.511 9.2915 23.3878 9.2915C23.2646 9.2915 23.1655 9.39068 23.1655 9.51404V16.1927C23.1655 16.3161 23.2646 16.4152 23.3878 16.4152Z" fill="#981D87"/>
<path opacity="0.2" d="M3.83726 9.2915C3.71402 9.2915 3.61495 9.39068 3.61495 9.51404V16.1927C3.61495 16.3161 3.71402 16.4152 3.83726 16.4152C3.96049 16.4152 4.05957 16.3161 4.05957 16.1927V9.51404C4.05957 9.39068 3.96049 9.2915 3.83726 9.2915Z" fill="#981D87"/>
<path opacity="0.2" d="M5.47422 9.2915C5.35098 9.2915 5.25191 9.39068 5.25191 9.51404V16.1927C5.25191 16.3161 5.35098 16.4152 5.47422 16.4152C5.59746 16.4152 5.69653 16.3161 5.69653 16.1927V9.51404C5.69653 9.39068 5.59746 9.2915 5.47422 9.2915Z" fill="#981D87"/>
<path opacity="0.2" d="M7.84972 9.2915C7.72648 9.2915 7.6274 9.39068 7.6274 9.51404V16.1927C7.6274 16.3161 7.72648 16.4152 7.84972 16.4152C7.97295 16.4152 8.07202 16.3161 8.07202 16.1927V9.51404C8.07202 9.39068 7.97295 9.2915 7.84972 9.2915Z" fill="#981D87"/>
<path opacity="0.2" d="M10.472 9.2915C10.3488 9.2915 10.2497 9.39068 10.2497 9.51404V16.1927C10.2497 16.3161 10.3488 16.4152 10.472 16.4152C10.5953 16.4152 10.6943 16.3161 10.6943 16.1927V9.51404C10.6943 9.39068 10.5953 9.2915 10.472 9.2915Z" fill="#981D87"/>
<path opacity="0.2" d="M13.337 9.2915C13.2138 9.2915 13.1147 9.39068 13.1147 9.51404V16.1927C13.1147 16.3161 13.2138 16.4152 13.337 16.4152C13.4603 16.4152 13.5593 16.3161 13.5593 16.1927V9.51404C13.5593 9.39068 13.4603 9.2915 13.337 9.2915Z" fill="#981D87"/>
<path opacity="0.2" d="M16.4491 9.2915C16.3258 9.2915 16.2268 9.39068 16.2268 9.51404V16.1927C16.2268 16.3161 16.3258 16.4152 16.4491 16.4152C16.5723 16.4152 16.6714 16.3161 16.6714 16.1927V9.51404C16.6714 9.39068 16.5723 9.2915 16.4491 9.2915Z" fill="#981D87"/>
<path opacity="0.2" d="M2.8833 9.55714V16.1898C2.8833 16.5841 3.20469 16.9083 3.60098 16.9083H36.237C36.5536 16.9083 36.8242 16.7027 36.916 16.4172H19.0588V9.2959H16.0503V16.4172H15.1756V9.2959H12.9428V16.4172H12.6504V9.2959H10.2727V16.4172H10.0794V9.2959H2.93164C2.90022 9.37814 2.8833 9.46523 2.8833 9.55956V9.55714Z" fill="#981D87"/>
<path opacity="0.2" d="M3.59796 8.83887H36.234C36.6279 8.83887 36.9517 9.15817 36.9517 9.55729V16.19C36.9517 16.2674 36.9396 16.3448 36.9154 16.415H36.2147V9.29363H35.8014V16.415H34.7817V9.29363H34.1365V16.415H32.4499V9.29363H31.5292V16.415H30.1205V9.29363H29.1394V16.415H27.7306V9.29363H26.2011V16.415H25.4979V9.29363H23.1685V16.415H22.8157V9.29363H2.92861C3.03493 9.02513 3.29349 8.83887 3.59554 8.83887H3.59796Z" fill="white"/>
<path d="M1.48991 0.861328H34.1477C34.5374 0.861328 34.8533 1.17756 34.8533 1.56765V8.21971C34.8533 8.6098 34.5374 8.92603 34.1477 8.92603H1.48991C1.10022 8.92603 0.784313 8.6098 0.784313 8.21971V1.56765C0.784313 1.17756 1.10022 0.861328 1.48991 0.861328Z" fill="url(#paint3_linear_1164_12466)"/>
<path opacity="0.2" d="M17.8194 8.43771C17.9427 8.43771 18.0417 8.33854 18.0417 8.21517V1.53651C18.0417 1.41314 17.9427 1.31396 17.8194 1.31396C17.6962 1.31396 17.5971 1.41314 17.5971 1.53651V8.21517C17.5971 8.33854 17.6962 8.43771 17.8194 8.43771Z" fill="#981D87"/>
<path opacity="0.2" d="M33.8998 8.43771C34.023 8.43771 34.1221 8.33854 34.1221 8.21517V1.53651C34.1221 1.41314 34.023 1.31396 33.8998 1.31396C33.7765 1.31396 33.6775 1.41314 33.6775 1.53651V8.21517C33.6775 8.33854 33.7765 8.43771 33.8998 8.43771Z" fill="#981D87"/>
<path opacity="0.2" d="M32.2628 8.43771C32.386 8.43771 32.4851 8.33854 32.4851 8.21517V1.53651C32.4851 1.41314 32.386 1.31396 32.2628 1.31396C32.1396 1.31396 32.0405 1.41314 32.0405 1.53651V8.21517C32.0405 8.33854 32.1396 8.43771 32.2628 8.43771Z" fill="#981D87"/>
<path opacity="0.2" d="M29.8854 8.43771C30.0086 8.43771 30.1077 8.33854 30.1077 8.21517V1.53651C30.1077 1.41314 30.0086 1.31396 29.8854 1.31396C29.7621 1.31396 29.663 1.41314 29.663 1.53651V8.21517C29.663 8.33854 29.7621 8.43771 29.8854 8.43771Z" fill="#981D87"/>
<path opacity="0.2" d="M27.2652 8.43771C27.3885 8.43771 27.4875 8.33854 27.4875 8.21517V1.53651C27.4875 1.41314 27.3885 1.31396 27.2652 1.31396C27.142 1.31396 27.0429 1.41314 27.0429 1.53651V8.21517C27.0429 8.33854 27.142 8.43771 27.2652 8.43771Z" fill="#981D87"/>
<path opacity="0.2" d="M24.3981 8.43771C24.5213 8.43771 24.6204 8.33854 24.6204 8.21517V1.53651C24.6204 1.41314 24.5213 1.31396 24.3981 1.31396C24.2748 1.31396 24.1757 1.41314 24.1757 1.53651V8.21517C24.1757 8.33854 24.2748 8.43771 24.3981 8.43771Z" fill="#981D87"/>
<path opacity="0.2" d="M21.2862 8.43771C21.4095 8.43771 21.5085 8.33854 21.5085 8.21517V1.53651C21.5085 1.41314 21.4095 1.31396 21.2862 1.31396C21.163 1.31396 21.0639 1.41314 21.0639 1.53651V8.21517C21.0639 8.33854 21.163 8.43771 21.2862 8.43771Z" fill="#981D87"/>
<path opacity="0.2" d="M1.73569 1.31641C1.61246 1.31641 1.51339 1.41558 1.51339 1.53895V8.21761C1.51339 8.34097 1.61246 8.44015 1.73569 8.44015C1.85893 8.44015 1.95801 8.34097 1.95801 8.21761V1.53895C1.95801 1.41558 1.85893 1.31641 1.73569 1.31641Z" fill="#981D87"/>
<path opacity="0.2" d="M3.37462 1.31641C3.25138 1.31641 3.15231 1.41558 3.15231 1.53895V8.21761C3.15231 8.34097 3.25138 8.44015 3.37462 8.44015C3.49786 8.44015 3.59692 8.34097 3.59692 8.21761V1.53895C3.59692 1.41558 3.49786 1.31641 3.37462 1.31641Z" fill="#981D87"/>
<path opacity="0.2" d="M5.7501 1.31641C5.62686 1.31641 5.52779 1.41558 5.52779 1.53895V8.21761C5.52779 8.34097 5.62686 8.44015 5.7501 8.44015C5.87334 8.44015 5.97241 8.34097 5.97241 8.21761V1.53895C5.97241 1.41558 5.87334 1.31641 5.7501 1.31641Z" fill="#981D87"/>
<path opacity="0.2" d="M8.37046 1.31641C8.24722 1.31641 8.14816 1.41558 8.14816 1.53895V8.21761C8.14816 8.34097 8.24722 8.44015 8.37046 8.44015C8.4937 8.44015 8.59277 8.34097 8.59277 8.21761V1.53895C8.59277 1.41558 8.4937 1.31641 8.37046 1.31641Z" fill="#981D87"/>
<path opacity="0.2" d="M11.2374 1.31641C11.1142 1.31641 11.0151 1.41558 11.0151 1.53895V8.21761C11.0151 8.34097 11.1142 8.44015 11.2374 8.44015C11.3606 8.44015 11.4597 8.34097 11.4597 8.21761V1.53895C11.4597 1.41558 11.3606 1.31641 11.2374 1.31641Z" fill="#981D87"/>
<path opacity="0.2" d="M14.3475 1.31641C14.2243 1.31641 14.1252 1.41558 14.1252 1.53895V8.21761C14.1252 8.34097 14.2243 8.44015 14.3475 8.44015C14.4707 8.44015 14.5698 8.34097 14.5698 8.21761V1.53895C14.5698 1.41558 14.4707 1.31641 14.3475 1.31641Z" fill="#981D87"/>
<path opacity="0.2" d="M0.783428 1.5796V8.2123C0.783428 8.60659 1.10481 8.93073 1.49868 8.93073H34.1347C34.4513 8.93073 34.7219 8.72512 34.8137 8.43968H16.9565V1.31836H13.948V8.43968H13.0733V1.31836H10.8405V8.43968H10.5481V1.31836H8.17039V8.43968H7.97708V1.31836H0.829342C0.797928 1.4006 0.781017 1.48768 0.781017 1.58202L0.783428 1.5796Z" fill="#981D87"/>
<path opacity="0.2" d="M1.50153 0.861328H34.1376C34.5314 0.861328 34.8552 1.18063 34.8552 1.57975V8.21245C34.8552 8.28986 34.8431 8.36726 34.819 8.43741H34.1182V1.31609H33.705V8.43741H32.6853V1.31609H32.0401V8.43741H30.3535V1.31609H29.4328V8.43741H28.024V1.31609H27.043V8.43741H25.6342V1.31609H24.1046V8.43741H23.4014V1.31609H21.072V8.43741H20.7192V1.31609H0.832184C0.938507 1.04759 1.19706 0.861328 1.49911 0.861328H1.50153Z" fill="white"/>
<path d="M34.9096 9.54038L55.6956 30.5923L57.5948 32.5154C57.9428 32.8709 58.5107 32.8734 58.8659 32.5226L63.3169 28.1202C63.6721 27.7718 63.6745 27.201 63.3266 26.8478L57.7398 21.1875L40.6413 3.87283C40.2934 3.51724 39.7231 3.51483 39.3679 3.86315L34.9168 8.2656C34.5641 8.61876 34.5616 9.18479 34.9096 9.54038Z" fill="url(#paint4_linear_1164_12466)"/>
<path opacity="0.2" d="M46.5994 20.6818C46.6864 20.7689 46.8265 20.7689 46.9135 20.6818L51.6569 15.9867C51.7439 15.8996 51.7439 15.7593 51.6569 15.6722C51.5699 15.5852 51.4298 15.5852 51.3428 15.6722L46.5994 20.3674C46.5124 20.4545 46.5124 20.5948 46.5994 20.6818Z" fill="#981D87"/>
<path opacity="0.2" d="M57.9048 32.133C57.9918 32.2201 58.1319 32.2201 58.2189 32.133L62.9623 27.4379C63.0493 27.3508 63.0493 27.2105 62.9623 27.1234C62.8754 27.0363 62.7352 27.0363 62.6482 27.1234L57.9048 31.8186C57.8178 31.9056 57.8178 32.0459 57.9048 32.133Z" fill="#981D87"/>
<path opacity="0.2" d="M56.7517 30.9651C56.8387 31.0521 56.9789 31.0521 57.0659 30.9651L61.8093 26.2699C61.8963 26.1828 61.8963 26.0425 61.8093 25.9554C61.7223 25.8684 61.5821 25.8684 61.4951 25.9554L56.7517 30.6506C56.6647 30.7377 56.6647 30.878 56.7517 30.9651Z" fill="#981D87"/>
<path opacity="0.2" d="M55.0811 29.2736C55.1681 29.3607 55.3082 29.3607 55.3952 29.2736L60.1386 24.5785C60.2256 24.4914 60.2256 24.3511 60.1386 24.264C60.0516 24.177 59.9115 24.177 59.8245 24.264L55.0811 28.9592C54.9941 29.0463 54.9941 29.1866 55.0811 29.2736Z" fill="#981D87"/>
<path opacity="0.2" d="M53.2388 27.4089C53.3258 27.496 53.4659 27.496 53.5529 27.4089L58.2963 22.7138C58.3833 22.6267 58.3833 22.4864 58.2963 22.3993C58.2093 22.3122 58.0692 22.3122 57.9822 22.3993L53.2388 27.0944C53.1518 27.1815 53.1518 27.3218 53.2388 27.4089Z" fill="#981D87"/>
<path opacity="0.2" d="M51.2268 25.3674C51.3138 25.4545 51.454 25.4545 51.541 25.3674L56.2844 20.6723C56.3714 20.5852 56.3714 20.4449 56.2844 20.3578C56.1974 20.2707 56.0572 20.2707 55.9702 20.3578L51.2268 25.0529C51.1398 25.14 51.1398 25.2803 51.2268 25.3674Z" fill="#981D87"/>
<path opacity="0.2" d="M49.0369 23.1516C49.1239 23.2387 49.264 23.2387 49.351 23.1516L54.0944 18.4564C54.1814 18.3694 54.1814 18.2291 54.0944 18.142C54.0074 18.0549 53.8673 18.0549 53.7803 18.142L49.0369 22.8371C48.9499 22.9242 48.9499 23.0645 49.0369 23.1516Z" fill="#981D87"/>
<path opacity="0.2" d="M40.3554 4.22596C40.2684 4.13887 40.1283 4.13887 40.0413 4.22596L35.2979 8.9211C35.2109 9.00818 35.2109 9.14847 35.2979 9.23555C35.3849 9.32263 35.525 9.32263 35.612 9.23555L40.3554 4.54042C40.4424 4.45334 40.4424 4.31304 40.3554 4.22596Z" fill="#981D87"/>
<path opacity="0.2" d="M41.5065 5.39197C41.4195 5.30489 41.2794 5.30489 41.1924 5.39197L36.449 10.0871C36.362 10.1742 36.362 10.3145 36.449 10.4016C36.536 10.4887 36.6761 10.4887 36.7631 10.4016L41.5065 5.70643C41.5935 5.61935 41.5935 5.47905 41.5065 5.39197Z" fill="#981D87"/>
<path opacity="0.2" d="M43.1769 7.08533C43.09 6.99825 42.9498 6.99825 42.8628 7.08533L38.1194 11.7805C38.0324 11.8676 38.0324 12.0079 38.1194 12.0949C38.2064 12.182 38.3465 12.182 38.4335 12.0949L43.1769 7.39979C43.2639 7.31271 43.2639 7.17241 43.1769 7.08533Z" fill="#981D87"/>
<path opacity="0.2" d="M45.0192 8.95008C44.9322 8.863 44.7921 8.863 44.7051 8.95008L39.9617 13.6452C39.8747 13.7323 39.8747 13.8726 39.9617 13.9597C40.0487 14.0468 40.1888 14.0468 40.2758 13.9597L45.0192 9.26454C45.1062 9.17746 45.1062 9.03716 45.0192 8.95008Z" fill="#981D87"/>
<path opacity="0.2" d="M47.0334 10.9916C46.9464 10.9045 46.8062 10.9045 46.7193 10.9916L41.9758 15.6867C41.8889 15.7738 41.8889 15.9141 41.9758 16.0012C42.0628 16.0883 42.203 16.0883 42.29 16.0012L47.0334 11.306C47.1204 11.219 47.1204 11.0787 47.0334 10.9916Z" fill="#981D87"/>
<path opacity="0.2" d="M49.2211 13.205C49.1341 13.1179 48.994 13.1179 48.907 13.205L44.1636 17.9001C44.0766 17.9872 44.0766 18.1275 44.1636 18.2146C44.2506 18.3016 44.3907 18.3016 44.4777 18.2146L49.2211 13.5194C49.3081 13.4323 49.3081 13.292 49.2211 13.205Z" fill="#981D87"/>
<path opacity="0.2" d="M39.4974 3.73249L34.7854 8.39377C34.5051 8.67194 34.5026 9.1267 34.7805 9.4073L57.7219 32.6435C57.9442 32.8685 58.2801 32.9169 58.5483 32.7814L45.9951 20.0675L51.0551 15.0628L48.9407 12.922L43.8807 17.9268L43.267 17.3051L48.3269 12.3003L46.7563 10.7111L41.6963 15.7159L41.4909 15.5078L46.5509 10.5031L44.8787 8.80982L39.8188 13.8146L39.6834 13.6767L44.7434 8.67195L39.7197 3.58252C39.6399 3.61638 39.565 3.66718 39.4974 3.73249Z" fill="#981D87"/>
<path opacity="0.2" d="M40.5092 3.73987L63.4506 26.9761C63.7285 27.2567 63.7285 27.7114 63.4458 27.9896L58.7338 32.6509C58.6782 32.7065 58.6154 32.7501 58.5477 32.7839L58.0548 32.2856L63.1148 27.2785L62.8248 26.9858L57.7648 31.9929L57.0496 31.2673L62.1095 26.2625L61.6552 25.8029L56.5953 30.8077L55.4112 29.6079L60.4712 24.6031L59.8236 23.9476L54.7636 28.9524L53.7729 27.9485L58.8329 22.9437L58.1418 22.2447L53.0818 27.2494L52.0911 26.2456L57.1511 21.2408L56.0758 20.1523L51.0158 25.1571L50.5204 24.6563L55.5804 19.6516L53.9445 17.9946L48.8845 22.9994L48.6356 22.7478L53.6956 17.743L39.7167 3.58506C39.98 3.47137 40.2966 3.52701 40.5092 3.73987Z" fill="white"/>
<path opacity="0.2" d="M34.9083 9.54038L55.6942 30.5923C57.1078 27.1066 57.6032 23.7371 57.7385 21.1875L40.64 3.87283C40.292 3.51724 39.7218 3.51483 39.3666 3.86315L34.9155 8.2656C34.5627 8.61876 34.5603 9.18479 34.9083 9.54038Z" fill="#981D87"/>
<defs>
<linearGradient id="paint0_linear_1164_12466" x1="34.8533" y1="25.7371" x2="32.1181" y2="38.2915" gradientUnits="userSpaceOnUse">
<stop stop-color="#FFBAF5"/>
<stop offset="0.986917" stop-color="#D73BC2"/>
</linearGradient>
<linearGradient id="paint1_linear_1164_12466" x1="34.0686" y1="17.7615" x2="31.3335" y2="30.3159" gradientUnits="userSpaceOnUse">
<stop stop-color="#FFBAF5"/>
<stop offset="0.986917" stop-color="#D73BC2"/>
</linearGradient>
<linearGradient id="paint2_linear_1164_12466" x1="36.9517" y1="9.78395" x2="34.2165" y2="22.3384" gradientUnits="userSpaceOnUse">
<stop stop-color="#FFBAF5"/>
<stop offset="0.986917" stop-color="#D73BC2"/>
</linearGradient>
<linearGradient id="paint3_linear_1164_12466" x1="34.8533" y1="1.80641" x2="32.1181" y2="14.3608" gradientUnits="userSpaceOnUse">
<stop stop-color="#FFBAF5"/>
<stop offset="0.986917" stop-color="#D73BC2"/>
</linearGradient>
<linearGradient id="paint4_linear_1164_12466" x1="63.5854" y1="7.02352" x2="39.8611" y2="32.5846" gradientUnits="userSpaceOnUse">
<stop stop-color="#FFBAF5"/>
<stop offset="0.986917" stop-color="#D73BC2"/>
</linearGradient>
</defs>
</svg>
